<?xml version="1.0" encoding="utf-8"?>
<!-- Generator: Adobe Illustrator 24.0.1, SVG Export Plug-In . SVG Version: 6.00 Build 0)  -->
<svg version="1.1" id="Layer_1" xmlns="http://www.w3.org/2000/svg" xmlns:xlink="http://www.w3.org/1999/xlink" x="0px" y="0px"
	 viewBox="0 0 562 507" style="enable-background:new 0 0 562 507;" xml:space="preserve">
<style type="text/css">
	.st0{opacity:9.999999e-02;filter:url(#filter-1);enable-background:new    ;}
	.st1{fill-rule:evenodd;clip-rule:evenodd;fill:#0BAB64;}
	.st2{opacity:5.000000e-02;fill:#3BB78F;enable-background:new    ;}
	.st3{opacity:9.999999e-02;fill:none;stroke:#0BAB64;stroke-width:30;enable-background:new    ;}
	.st4{opacity:0.1;fill:#0BAB64;enable-background:new    ;}
	.st5{fill-rule:evenodd;clip-rule:evenodd;fill:#2C2F33;}
	.st6{fill-rule:evenodd;clip-rule:evenodd;fill:#FFFFFF;}
	.st7{filter:url(#Adobe_OpacityMaskFilter);}
	.st8{mask:url(#mask-3_1_);fill-rule:evenodd;clip-rule:evenodd;fill:#E97EFF;fill-opacity:0.549;}
	.st9{filter:url(#Adobe_OpacityMaskFilter_1_);}
	.st10{mask:url(#mask-3_2_);fill-rule:evenodd;clip-rule:evenodd;fill:#E97EFF;fill-opacity:0.549;}
	.st11{fill:#3BB78F;}
	.st12{filter:url(#filter-6);}
	.st13{fill-rule:evenodd;clip-rule:evenodd;}
	.st14{filter:url(#Adobe_OpacityMaskFilter_2_);}
	.st15{mask:url(#mask-5_1_);fill-rule:evenodd;clip-rule:evenodd;fill:#BBF9DC;}
	.st16{filter:url(#Adobe_OpacityMaskFilter_3_);}
	.st17{opacity:0.3656;mask:url(#mask-5_2_);fill-rule:evenodd;clip-rule:evenodd;fill:#3BB78F;enable-background:new    ;}
	.st18{filter:url(#Adobe_OpacityMaskFilter_4_);}
	.st19{mask:url(#mask-5_3_);fill-rule:evenodd;clip-rule:evenodd;fill:#FFFFFF;}
	.st20{filter:url(#Adobe_OpacityMaskFilter_5_);}
	.st21{mask:url(#mask-5_4_);fill-rule:evenodd;clip-rule:evenodd;fill:#EA5455;}
	.st22{filter:url(#Adobe_OpacityMaskFilter_6_);}
	.st23{mask:url(#mask-5_5_);fill-rule:evenodd;clip-rule:evenodd;fill:#F8F9FA;}
	.st24{filter:url(#Adobe_OpacityMaskFilter_7_);}
	.st25{mask:url(#mask-5_6_);fill:#FF9F43;}
	.st26{filter:url(#Adobe_OpacityMaskFilter_8_);}
	.st27{mask:url(#mask-5_7_);fill-rule:evenodd;clip-rule:evenodd;fill:#F8F9FA;}
	.st28{filter:url(#Adobe_OpacityMaskFilter_9_);}
	.st29{mask:url(#mask-5_8_);fill-rule:evenodd;clip-rule:evenodd;fill:#28C76F;}
	.st30{filter:url(#Adobe_OpacityMaskFilter_10_);}
	.st31{mask:url(#mask-5_9_);fill-rule:evenodd;clip-rule:evenodd;fill:#F8F9FA;}
	.st32{filter:url(#Adobe_OpacityMaskFilter_11_);}
	.st33{mask:url(#mask-5_10_);}
	.st34{filter:url(#Adobe_OpacityMaskFilter_12_);}
	.st35{mask:url(#mask-5_11_);}
	.st36{fill-rule:evenodd;clip-rule:evenodd;fill:#F2F2F2;}
	.st37{fill-rule:evenodd;clip-rule:evenodd;fill:#28C76F;}
	.st38{filter:url(#Adobe_OpacityMaskFilter_13_);}
	.st39{mask:url(#mask-5_12_);}
	.st40{fill:#FF9F43;}
	.st41{filter:url(#Adobe_OpacityMaskFilter_14_);}
	.st42{mask:url(#mask-5_13_);}
	.st43{fill-rule:evenodd;clip-rule:evenodd;fill:#EA5455;}
	.st44{filter:url(#filter-8);}
	.st45{fill-rule:evenodd;clip-rule:evenodd;fill:#58DDAD;}
	.st46{fill-rule:evenodd;clip-rule:evenodd;fill:#FFBB7A;}
	.st47{fill-rule:evenodd;clip-rule:evenodd;fill:#FFFFFF;fill-opacity:0.4162;}
	.st48{fill-rule:evenodd;clip-rule:evenodd;fill:#FFFFFF;fill-opacity:0.6469;}
	.st49{fill-rule:evenodd;clip-rule:evenodd;fill:url(#Path_31_);}
	.st50{fill-rule:evenodd;clip-rule:evenodd;fill:#482B61;}
	.st51{fill-rule:evenodd;clip-rule:evenodd;fill:#2F2B57;}
	.st52{opacity:0.591;fill-rule:evenodd;clip-rule:evenodd;fill:#FFFFFF;fill-opacity:0.1925;enable-background:new    ;}
	.st53{fill:none;stroke:#FFFFFF;stroke-linecap:round;}
	.st54{fill-rule:evenodd;clip-rule:evenodd;fill:url(#Path_55_);}
	.st55{fill-rule:evenodd;clip-rule:evenodd;fill:#3A3669;}
	.st56{opacity:0.4616;fill-rule:evenodd;clip-rule:evenodd;fill:#FFFFFF;fill-opacity:0.1925;enable-background:new    ;}
	.st57{fill-rule:evenodd;clip-rule:evenodd;fill:url(#Path_64_);}
	.st58{fill-rule:evenodd;clip-rule:evenodd;fill:url(#Path_65_);}
	.st59{fill:none;stroke:#F49494;stroke-linecap:round;}
	.st60{fill:none;stroke:#DE6767;stroke-linecap:round;}
	.st61{fill-rule:evenodd;clip-rule:evenodd;fill:#422851;}
	.st62{fill-rule:evenodd;clip-rule:evenodd;fill:url(#Path_66_);}
	.st63{fill-rule:evenodd;clip-rule:evenodd;fill:#F28585;}
	.st64{fill-rule:evenodd;clip-rule:evenodd;fill:#FF5C5D;}
	.st65{fill-rule:evenodd;clip-rule:evenodd;fill-opacity:0.1599;}
	.st66{fill-rule:evenodd;clip-rule:evenodd;fill:#FF9B86;}
	.st67{fill-rule:evenodd;clip-rule:evenodd;fill-opacity:6.676137e-02;}
	.st68{fill-rule:evenodd;clip-rule:evenodd;fill:url(#Path_67_);}
	.st69{fill-rule:evenodd;clip-rule:evenodd;fill:#3A3012;}
	.st70{fill-rule:evenodd;clip-rule:evenodd;fill:#91D6FF;}
	.st71{fill-rule:evenodd;clip-rule:evenodd;fill:#443718;}
	.st72{fill-rule:evenodd;clip-rule:evenodd;fill:url(#Path_68_);}
	.st73{fill-rule:evenodd;clip-rule:evenodd;fill:url(#Path_69_);}
	.st74{fill:none;stroke:#F77B7B;stroke-width:1.5;stroke-linecap:round;}
	.st75{fill:none;stroke:#F77B7B;stroke-linecap:round;}
	.st76{fill-rule:evenodd;clip-rule:evenodd;fill:url(#Path_70_);}
	.st77{fill-rule:evenodd;clip-rule:evenodd;fill:#222D4E;}
	.st78{fill-rule:evenodd;clip-rule:evenodd;fill:#FFFFFF;fill-opacity:0.541;}
	.st79{fill-rule:evenodd;clip-rule:evenodd;fill:url(#Path_71_);}
	.st80{fill-rule:evenodd;clip-rule:evenodd;fill:url(#Path_72_);}
	.st81{fill-rule:evenodd;clip-rule:evenodd;fill:#6A5EE3;}
	.st82{fill-rule:evenodd;clip-rule:evenodd;fill-opacity:0.3028;}
	.st83{fill:#0BAB64;}
	.st84{fill-rule:evenodd;clip-rule:evenodd;fill:#3BB78F;}
	.st85{fill:#E6F3FF;}
	.st86{fill-rule:evenodd;clip-rule:evenodd;fill-opacity:0.1994;}
	.st87{fill-rule:evenodd;clip-rule:evenodd;fill:url(#Path_73_);}
	.st88{fill-rule:evenodd;clip-rule:evenodd;fill:url(#Path_74_);}
	.st89{fill-rule:evenodd;clip-rule:evenodd;fill:#2C3757;}
	.st90{fill-rule:evenodd;clip-rule:evenodd;fill:#2CE780;}
	.st91{fill-rule:evenodd;clip-rule:evenodd;fill:#DA4E4F;}
	.st92{filter:url(#Adobe_OpacityMaskFilter_15_);}
	.st93{mask:url(#mask-23_1_);fill-rule:evenodd;clip-rule:evenodd;fill:#E95B5C;}
	.st94{filter:url(#Adobe_OpacityMaskFilter_16_);}
	.st95{mask:url(#mask-23_2_);fill-rule:evenodd;clip-rule:evenodd;fill:#FFDFE2;fill-opacity:0.2579;}
	.st96{filter:url(#Adobe_OpacityMaskFilter_17_);}
	.st97{mask:url(#mask-23_3_);fill-rule:evenodd;clip-rule:evenodd;fill:#FFDFE2;fill-opacity:0.2579;}
</style>
<filter  filterUnits="objectBoundingBox" height="143.0%" id="filter-8" width="125.2%" x="-9.5%" y="-17.9%">
	<feOffset  dx="6" dy="4" in="SourceAlpha" result="shadowOffsetOuter1"></feOffset>
	<feGaussianBlur  in="shadowOffsetOuter1" result="shadowBlurOuter1" stdDeviation="7"></feGaussianBlur>
	
		<feColorMatrix  in="shadowBlurOuter1" type="matrix" values="0 0 0 0 0.018993433   0 0 0 0 0.018993433   0 0 0 0 0.018993433  0 0 0 0.11 0">
		</feColorMatrix>
</filter>
<filter  filterUnits="objectBoundingBox" height="153.9%" id="filter-6" width="135.4%" x="-15.0%" y="-22.8%">
	<feOffset  dx="5" dy="5" in="SourceAlpha" result="shadowOffsetOuter1"></feOffset>
	<feGaussianBlur  in="shadowOffsetOuter1" result="shadowBlurOuter1" stdDeviation="10"></feGaussianBlur>
	
		<feColorMatrix  in="shadowBlurOuter1" result="shadowMatrixOuter1" type="matrix" values="0 0 0 0 0.0755212756   0 0 0 0 0.582569014   0 0 0 0 0.878793025  0 0 0 0.229458042 0">
		</feColorMatrix>
	<feOffset  dx="0" dy="1" in="SourceAlpha" result="shadowOffsetOuter2"></feOffset>
	<feGaussianBlur  in="shadowOffsetOuter2" result="shadowBlurOuter2" stdDeviation="5.5"></feGaussianBlur>
	
		<feColorMatrix  in="shadowBlurOuter2" result="shadowMatrixOuter2" type="matrix" values="0 0 0 0 0.50398247   0 0 0 0 0.700178215   0 0 0 0 1  0 0 0 0.233828671 0">
		</feColorMatrix>
	<feMerge>
		<feMergeNode  in="shadowMatrixOuter1"></feMergeNode>
		<feMergeNode  in="shadowMatrixOuter2"></feMergeNode>
	</feMerge>
</filter>
<filter  filterUnits="objectBoundingBox" height="105.9%" id="filter-1" width="105.9%" x="-2.9%" y="-2.9%">
	<feGaussianBlur  in="SourceGraphic" stdDeviation="2"></feGaussianBlur>
</filter>
<title>Illustration</title>
<g id="_xD83D__xDCDD_-Pages-New">
	<g id="Error" transform="translate(-436.000000, -279.000000)">
		<g id="Illustration" transform="translate(442.000000, 294.000000)">
			<g id="Shape">
				<g id="Oval" class="st0">
					<ellipse class="st1" cx="101.7" cy="229.5" rx="101.7" ry="102.5"/>
				</g>
				<path id="Oval_1_" class="st2" d="M426.9,46c-53.5,0-96.9,43.4-96.9,96.9s43.4,96.9,96.9,96.9s96.9-43.4,96.9-96.9
					S480.4,46,426.9,46z M427.3,87.3c30.4,0,55,24.6,55,55s-24.6,55-55,55s-55-24.6-55-55S396.9,87.3,427.3,87.3z"/>
				<ellipse id="Oval_2_" class="st3" cx="269.8" cy="33.5" rx="33.4" ry="33.5"/>
				<path id="Path" class="st4" d="M427.3,46c53.3,0,96.5,43.4,96.5,96.9s-43.2,96.9-96.5,96.9c-32.1,0-61.6-15.9-79.5-41.9
					c-6.5-9.5-4.1-22.4,5.3-29c9.3-6.5,22.1-4.2,28.7,5l0.2,0.3c10.2,14.9,27,23.9,45.3,23.9c30.4,0,55-24.7,55-55.2
					c0-30.2-24.1-54.7-54.1-55.2l-0.9,0c-11.5,0-20.8-9.3-20.8-20.8S415.8,46,427.3,46z"/>
			</g>
			<g id="Mobile-Banking-App" transform="translate(16.000000, 122.000000)">
				<g id="Phone3" transform="translate(127.710362, 0.000000)">
					<path id="Rectangle" class="st5" d="M25.1,0h127.1c13.9,0,25.1,11.3,25.1,25.1v317.5c0,13.9-11.3,25.1-25.1,25.1H25.1
						C11.3,367.8,0,356.5,0,342.6V25.1C0,11.3,11.3,0,25.1,0z"/>
					<g id="Group-48" transform="translate(6.397456, 7.410940)">
						<g id="Rectangle_1_">
							<path id="path-2_1_" class="st6" d="M18.5,0h19.6c1.6,0,3,1.3,3,2.9l0.1,1.9c0.1,2.7,2.3,4.8,5,4.8h71.8c2.7,0,4.9-2.1,5-4.8
								l0.1-1.9c0-1.6,1.4-2.9,3-2.9h19.6C155.7,0,164,8.3,164,18.5v313.7c0,10.2-8.3,18.5-18.5,18.5h-127
								C8.3,350.7,0,342.5,0,332.2V18.5C0,8.3,8.3,0,18.5,0z"/>
						</g>
						<defs>
							<filter id="Adobe_OpacityMaskFilter" filterUnits="userSpaceOnUse" x="48.1" y="199.4" width="28.1" height="28.1">
								<feColorMatrix  type="matrix" values="1 0 0 0 0  0 1 0 0 0  0 0 1 0 0  0 0 0 1 0"/>
							</filter>
						</defs>
						<mask maskUnits="userSpaceOnUse" x="48.1" y="199.4" width="28.1" height="28.1" id="mask-3_1_">
							<g class="st7">
								<path id="path-2_2_" class="st6" d="M18.5,0h19.6c1.6,0,3,1.3,3,2.9l0.1,1.9c0.1,2.7,2.3,4.8,5,4.8h71.8
									c2.7,0,4.9-2.1,5-4.8l0.1-1.9c0-1.6,1.4-2.9,3-2.9h19.6C155.7,0,164,8.3,164,18.5v313.7c0,10.2-8.3,18.5-18.5,18.5h-127
									C8.3,350.7,0,342.5,0,332.2V18.5C0,8.3,8.3,0,18.5,0z"/>
							</g>
						</mask>
						<ellipse id="Oval_3_" class="st8" cx="62.2" cy="213.5" rx="14.1" ry="14.1"/>
						<defs>
							<filter id="Adobe_OpacityMaskFilter_1_" filterUnits="userSpaceOnUse" x="20" y="60.2" width="125.3" height="9.2">
								<feColorMatrix  type="matrix" values="1 0 0 0 0  0 1 0 0 0  0 0 1 0 0  0 0 0 1 0"/>
							</filter>
						</defs>
						<mask maskUnits="userSpaceOnUse" x="20" y="60.2" width="125.3" height="9.2" id="mask-3_2_">
							<g class="st9">
								<path id="path-2_3_" class="st6" d="M18.5,0h19.6c1.6,0,3,1.3,3,2.9l0.1,1.9c0.1,2.7,2.3,4.8,5,4.8h71.8
									c2.7,0,4.9-2.1,5-4.8l0.1-1.9c0-1.6,1.4-2.9,3-2.9h19.6C155.7,0,164,8.3,164,18.5v313.7c0,10.2-8.3,18.5-18.5,18.5h-127
									C8.3,350.7,0,342.5,0,332.2V18.5C0,8.3,8.3,0,18.5,0z"/>
							</g>
						</mask>
						<path id="Rectangle_2_" class="st10" d="M24.6,60.2h116.1c2.5,0,4.6,2.1,4.6,4.6c0,2.5-2.1,4.6-4.6,4.6H24.6
							c-2.5,0-4.6-2.1-4.6-4.6C20,62.3,22,60.2,24.6,60.2z"/>
					</g>
					<path id="Path_1_" class="st11" d="M98.3,6.4c1.5,0,2.7,1.2,2.7,2.6c0,1.4-1.2,2.6-2.6,2.6l-0.1,0H67.2c-1.5,0-2.7-1.2-2.7-2.6
						c0-1.4,1.2-2.6,2.6-2.6l0.1,0H98.3z"/>
					<path id="Path_2_" class="st11" d="M109.4,6c1.5,0,2.7,1.2,2.7,2.7c0,1.5-1.2,2.7-2.6,2.7l-0.1,0h-0.1c-1.5,0-2.7-1.2-2.7-2.7
						c0-1.5,1.2-2.7,2.6-2.7l0.1,0H109.4z"/>
				</g>
				<g id="BoardPieChart" transform="translate(144.671894, 174.000000)">
					<g id="Rectangle_3_">
						<g class="st12">
							<path id="path-4_16_" class="st13" d="M9.8,0h166.3c4.8,0,8.8,3.9,8.8,8.8v103c0,4.8-3.9,8.8-8.8,8.8H9.8
								c-4.8,0-8.8-3.9-8.8-8.8V8.8C1,3.9,4.9,0,9.8,0z"/>
						</g>
						<g>
							<path id="path-4_2_" class="st6" d="M9.8,0h166.3c4.8,0,8.8,3.9,8.8,8.8v103c0,4.8-3.9,8.8-8.8,8.8H9.8
								c-4.8,0-8.8-3.9-8.8-8.8V8.8C1,3.9,4.9,0,9.8,0z"/>
						</g>
					</g>
					<defs>
						<filter id="Adobe_OpacityMaskFilter_2_" filterUnits="userSpaceOnUse" x="-4.1" y="-4.7" width="192.7" height="35.4">
							<feColorMatrix  type="matrix" values="1 0 0 0 0  0 1 0 0 0  0 0 1 0 0  0 0 0 1 0"/>
						</filter>
					</defs>
					<mask maskUnits="userSpaceOnUse" x="-4.1" y="-4.7" width="192.7" height="35.4" id="mask-5_1_">
						<g class="st14">
							<path id="path-4_3_" class="st6" d="M8.8,0h166.3c4.8,0,8.8,3.9,8.8,8.8v103c0,4.8-3.9,8.8-8.8,8.8H8.8
								c-4.8,0-8.8-3.9-8.8-8.8V8.8C0,3.9,3.9,0,8.8,0z"/>
						</g>
					</mask>
					<polygon id="Rectangle_4_" class="st15" points="-4.1,-4.7 188.6,-4.7 188.6,30.7 -4.1,30.7 					"/>
					<defs>
						<filter id="Adobe_OpacityMaskFilter_3_" filterUnits="userSpaceOnUse" x="15.3" y="19.5" width="62.5" height="3.5">
							<feColorMatrix  type="matrix" values="1 0 0 0 0  0 1 0 0 0  0 0 1 0 0  0 0 0 1 0"/>
						</filter>
					</defs>
					<mask maskUnits="userSpaceOnUse" x="15.3" y="19.5" width="62.5" height="3.5" id="mask-5_2_">
						<g class="st16">
							<path id="path-4_4_" class="st6" d="M8.8,0h166.3c4.8,0,8.8,3.9,8.8,8.8v103c0,4.8-3.9,8.8-8.8,8.8H8.8
								c-4.8,0-8.8-3.9-8.8-8.8V8.8C0,3.9,3.9,0,8.8,0z"/>
						</g>
					</mask>
					<path id="Rectangle_5_" class="st17" d="M17.1,19.5H76c1,0,1.8,0.8,1.8,1.8c0,1-0.8,1.8-1.8,1.8H17.1c-1,0-1.8-0.8-1.8-1.8
						C15.3,20.3,16.1,19.5,17.1,19.5z"/>
					<defs>
						<filter id="Adobe_OpacityMaskFilter_4_" filterUnits="userSpaceOnUse" x="15.3" y="9.4" width="33" height="3.5">
							<feColorMatrix  type="matrix" values="1 0 0 0 0  0 1 0 0 0  0 0 1 0 0  0 0 0 1 0"/>
						</filter>
					</defs>
					<mask maskUnits="userSpaceOnUse" x="15.3" y="9.4" width="33" height="3.5" id="mask-5_3_">
						<g class="st18">
							<path id="path-4_5_" class="st6" d="M8.8,0h166.3c4.8,0,8.8,3.9,8.8,8.8v103c0,4.8-3.9,8.8-8.8,8.8H8.8
								c-4.8,0-8.8-3.9-8.8-8.8V8.8C0,3.9,3.9,0,8.8,0z"/>
						</g>
					</mask>
					<rect id="Rectangle_6_" x="15.3" y="9.4" class="st19" width="33" height="3.5"/>
					<defs>
						<filter id="Adobe_OpacityMaskFilter_5_" filterUnits="userSpaceOnUse" x="21.2" y="89.8" width="33" height="4.1">
							<feColorMatrix  type="matrix" values="1 0 0 0 0  0 1 0 0 0  0 0 1 0 0  0 0 0 1 0"/>
						</filter>
					</defs>
					<mask maskUnits="userSpaceOnUse" x="21.2" y="89.8" width="33" height="4.1" id="mask-5_4_">
						<g class="st20">
							<path id="path-4_6_" class="st6" d="M8.8,0h166.3c4.8,0,8.8,3.9,8.8,8.8v103c0,4.8-3.9,8.8-8.8,8.8H8.8
								c-4.8,0-8.8-3.9-8.8-8.8V8.8C0,3.9,3.9,0,8.8,0z"/>
						</g>
					</mask>
					<rect id="Rectangle_7_" x="21.2" y="89.8" class="st21" width="33" height="4.1"/>
					<defs>
						<filter id="Adobe_OpacityMaskFilter_6_" filterUnits="userSpaceOnUse" x="21.2" y="101.6" width="21.2" height="4.1">
							<feColorMatrix  type="matrix" values="1 0 0 0 0  0 1 0 0 0  0 0 1 0 0  0 0 0 1 0"/>
						</filter>
					</defs>
					<mask maskUnits="userSpaceOnUse" x="21.2" y="101.6" width="21.2" height="4.1" id="mask-5_5_">
						<g class="st22">
							<path id="path-4_7_" class="st6" d="M8.8,0h166.3c4.8,0,8.8,3.9,8.8,8.8v103c0,4.8-3.9,8.8-8.8,8.8H8.8
								c-4.8,0-8.8-3.9-8.8-8.8V8.8C0,3.9,3.9,0,8.8,0z"/>
						</g>
					</mask>
					<path id="Rectangle_8_" class="st23" d="M23.3,101.6h17.1c1.1,0,2.1,0.9,2.1,2.1s-0.9,2.1-2.1,2.1H23.3c-1.1,0-2.1-0.9-2.1-2.1
						S22.1,101.6,23.3,101.6z"/>
					<defs>
						<filter id="Adobe_OpacityMaskFilter_7_" filterUnits="userSpaceOnUse" x="73.7" y="89.8" width="33" height="4.1">
							<feColorMatrix  type="matrix" values="1 0 0 0 0  0 1 0 0 0  0 0 1 0 0  0 0 0 1 0"/>
						</filter>
					</defs>
					<mask maskUnits="userSpaceOnUse" x="73.7" y="89.8" width="33" height="4.1" id="mask-5_6_">
						<g class="st24">
							<path id="path-4_8_" class="st6" d="M8.8,0h166.3c4.8,0,8.8,3.9,8.8,8.8v103c0,4.8-3.9,8.8-8.8,8.8H8.8
								c-4.8,0-8.8-3.9-8.8-8.8V8.8C0,3.9,3.9,0,8.8,0z"/>
						</g>
					</mask>
					<rect id="Rectangle_9_" x="73.7" y="89.8" class="st25" width="33" height="4.1"/>
					<defs>
						<filter id="Adobe_OpacityMaskFilter_8_" filterUnits="userSpaceOnUse" x="73.7" y="101.6" width="21.2" height="4.1">
							<feColorMatrix  type="matrix" values="1 0 0 0 0  0 1 0 0 0  0 0 1 0 0  0 0 0 1 0"/>
						</filter>
					</defs>
					<mask maskUnits="userSpaceOnUse" x="73.7" y="101.6" width="21.2" height="4.1" id="mask-5_7_">
						<g class="st26">
							<path id="path-4_9_" class="st6" d="M8.8,0h166.3c4.8,0,8.8,3.9,8.8,8.8v103c0,4.8-3.9,8.8-8.8,8.8H8.8
								c-4.8,0-8.8-3.9-8.8-8.8V8.8C0,3.9,3.9,0,8.8,0z"/>
						</g>
					</mask>
					<path id="Rectangle_10_" class="st27" d="M75.7,101.6h17.1c1.1,0,2.1,0.9,2.1,2.1s-0.9,2.1-2.1,2.1H75.7
						c-1.1,0-2.1-0.9-2.1-2.1S74.6,101.6,75.7,101.6z"/>
					<defs>
						<filter id="Adobe_OpacityMaskFilter_9_" filterUnits="userSpaceOnUse" x="127.9" y="89.8" width="33" height="4.1">
							<feColorMatrix  type="matrix" values="1 0 0 0 0  0 1 0 0 0  0 0 1 0 0  0 0 0 1 0"/>
						</filter>
					</defs>
					<mask maskUnits="userSpaceOnUse" x="127.9" y="89.8" width="33" height="4.1" id="mask-5_8_">
						<g class="st28">
							<path id="path-4_10_" class="st6" d="M8.8,0h166.3c4.8,0,8.8,3.9,8.8,8.8v103c0,4.8-3.9,8.8-8.8,8.8H8.8
								c-4.8,0-8.8-3.9-8.8-8.8V8.8C0,3.9,3.9,0,8.8,0z"/>
						</g>
					</mask>
					<rect id="Rectangle_11_" x="127.9" y="89.8" class="st29" width="33" height="4.1"/>
					<defs>
						<filter id="Adobe_OpacityMaskFilter_10_" filterUnits="userSpaceOnUse" x="127.9" y="101.6" width="21.2" height="4.1">
							<feColorMatrix  type="matrix" values="1 0 0 0 0  0 1 0 0 0  0 0 1 0 0  0 0 0 1 0"/>
						</filter>
					</defs>
					<mask maskUnits="userSpaceOnUse" x="127.9" y="101.6" width="21.2" height="4.1" id="mask-5_9_">
						<g class="st30">
							<path id="path-4_11_" class="st6" d="M8.8,0h166.3c4.8,0,8.8,3.9,8.8,8.8v103c0,4.8-3.9,8.8-8.8,8.8H8.8
								c-4.8,0-8.8-3.9-8.8-8.8V8.8C0,3.9,3.9,0,8.8,0z"/>
						</g>
					</mask>
					<path id="Rectangle_12_" class="st31" d="M129.9,101.6H147c1.1,0,2.1,0.9,2.1,2.1s-0.9,2.1-2.1,2.1h-17.1
						c-1.1,0-2.1-0.9-2.1-2.1S128.8,101.6,129.9,101.6z"/>
					<defs>
						<filter id="Adobe_OpacityMaskFilter_11_" filterUnits="userSpaceOnUse">
							<feColorMatrix  type="matrix" values="1 0 0 0 0  0 1 0 0 0  0 0 1 0 0  0 0 0 1 0"/>
						</filter>
					</defs>
					<mask maskUnits="userSpaceOnUse" id="mask-5_10_">
						<g class="st32">
							<path id="path-4_12_" class="st6" d="M8.8,0h166.3c4.8,0,8.8,3.9,8.8,8.8v103c0,4.8-3.9,8.8-8.8,8.8H8.8
								c-4.8,0-8.8-3.9-8.8-8.8V8.8C0,3.9,3.9,0,8.8,0z"/>
						</g>
					</mask>
					<g id="Group-37" class="st33">
						<g id="Group-5" transform="translate(21.213261, 46.658726)">
							<g transform="translate(0.147314, 0.147654)">
							</g>
						</g>
					</g>
					<defs>
						<filter id="Adobe_OpacityMaskFilter_12_" filterUnits="userSpaceOnUse" x="127.4" y="43.9" width="33.9" height="34">
							<feColorMatrix  type="matrix" values="1 0 0 0 0  0 1 0 0 0  0 0 1 0 0  0 0 0 1 0"/>
						</filter>
					</defs>
					<mask maskUnits="userSpaceOnUse" x="127.4" y="43.9" width="33.9" height="34" id="mask-5_11_">
						<g class="st34">
							<path id="path-4_13_" class="st6" d="M8.8,0h166.3c4.8,0,8.8,3.9,8.8,8.8v103c0,4.8-3.9,8.8-8.8,8.8H8.8
								c-4.8,0-8.8-3.9-8.8-8.8V8.8C0,3.9,3.9,0,8.8,0z"/>
						</g>
					</mask>
					<g id="Group-3" class="st35">
						<g transform="translate(127.426881, 43.853296)">
							<path id="Oval_4_" class="st36" d="M16.9,34c9.4,0,16.9-7.6,16.9-17S26.3,0,16.9,0S0,7.6,0,17S7.6,34,16.9,34z M16.9,27.2
								c-5.6,0-10.2-4.6-10.2-10.2S11.3,6.8,16.9,6.8S27.1,11.4,27.1,17S22.6,27.2,16.9,27.2z"/>
							<path id="Path_3_" class="st37" d="M33.9,17c0-9.4-7.6-17-16.9-17c-1.9,0-3.4,1.5-3.4,3.4s1.5,3.4,3.4,3.4
								c5.6,0,10.1,4.5,10.2,10l0,0.2c0,1.9,1.5,3.4,3.4,3.4S33.9,18.9,33.9,17z"/>
						</g>
					</g>
					<defs>
						<filter id="Adobe_OpacityMaskFilter_13_" filterUnits="userSpaceOnUse" x="74.4" y="43.9" width="33.9" height="34">
							<feColorMatrix  type="matrix" values="1 0 0 0 0  0 1 0 0 0  0 0 1 0 0  0 0 0 1 0"/>
						</filter>
					</defs>
					<mask maskUnits="userSpaceOnUse" x="74.4" y="43.9" width="33.9" height="34" id="mask-5_12_">
						<g class="st38">
							<path id="path-4_14_" class="st6" d="M8.8,0h166.3c4.8,0,8.8,3.9,8.8,8.8v103c0,4.8-3.9,8.8-8.8,8.8H8.8
								c-4.8,0-8.8-3.9-8.8-8.8V8.8C0,3.9,3.9,0,8.8,0z"/>
						</g>
					</mask>
					<g id="Group-4" class="st39">
						<g transform="translate(74.393728, 43.853296)">
							<path id="Oval_5_" class="st36" d="M16.9,34c9.4,0,16.9-7.6,16.9-17S26.3,0,16.9,0S0,7.6,0,17S7.6,34,16.9,34z M16.9,27.2
								c-5.6,0-10.2-4.6-10.2-10.2S11.3,6.8,16.9,6.8S27.1,11.4,27.1,17S22.6,27.2,16.9,27.2z"/>
							<path id="Path_4_" class="st40" d="M16.9,34c9.4,0,16.9-7.6,16.9-17S26.3,0,16.9,0c-1.9,0-3.4,1.5-3.4,3.4s1.5,3.4,3.4,3.4
								c5.6,0,10.2,4.6,10.2,10.2c0,5.6-4.4,10.1-10,10.2l-0.2,0c-1.9,0-3.4,1.5-3.4,3.4C13.6,32.4,15.1,34,16.9,34z"/>
						</g>
					</g>
					<defs>
						<filter id="Adobe_OpacityMaskFilter_14_" filterUnits="userSpaceOnUse" x="21.4" y="43.9" width="33.9" height="34">
							<feColorMatrix  type="matrix" values="1 0 0 0 0  0 1 0 0 0  0 0 1 0 0  0 0 0 1 0"/>
						</filter>
					</defs>
					<mask maskUnits="userSpaceOnUse" x="21.4" y="43.9" width="33.9" height="34" id="mask-5_13_">
						<g class="st41">
							<path id="path-4_15_" class="st6" d="M8.8,0h166.3c4.8,0,8.8,3.9,8.8,8.8v103c0,4.8-3.9,8.8-8.8,8.8H8.8
								c-4.8,0-8.8-3.9-8.8-8.8V8.8C0,3.9,3.9,0,8.8,0z"/>
						</g>
					</mask>
					<g id="Group-6" class="st42">
						<g transform="translate(21.360575, 43.853296)">
							<path id="Oval_6_" class="st36" d="M16.9,34c9.4,0,16.9-7.6,16.9-17S26.3,0,16.9,0S0,7.6,0,17S7.6,34,16.9,34z M16.9,27.2
								c-5.6,0-10.2-4.6-10.2-10.2S11.3,6.8,16.9,6.8S27.1,11.4,27.1,17S22.6,27.2,16.9,27.2z"/>
							<path id="Path_5_" class="st43" d="M0,17c0,9.4,7.6,17,16.9,17s16.9-7.6,16.9-17S26.3,0,16.9,0c-1.9,0-3.4,1.5-3.4,3.4
								s1.5,3.4,3.4,3.4c5.6,0,10.2,4.6,10.2,10.2s-4.6,10.2-10.2,10.2S6.8,22.6,6.8,17c0-1.9-1.5-3.4-3.4-3.4S0,15.1,0,17z"/>
						</g>
					</g>
				</g>
				<g id="VisaCard2" transform="translate(142.676420, 47.000000)">
					<g id="Rectangle_13_">
						<g class="st44">
							<path id="path-7_2_" class="st13" d="M3.9,0h182.4c2.2,0,3.9,1.8,3.9,4v103.8c0,2.2-1.8,4-3.9,4H3.9c-2.2,0-3.9-1.8-3.9-4V4
								C0,1.8,1.8,0,3.9,0z"/>
						</g>
						<g>
							<path id="path-7_1_" class="st1" d="M3.9,0h182.4c2.2,0,3.9,1.8,3.9,4v103.8c0,2.2-1.8,4-3.9,4H3.9c-2.2,0-3.9-1.8-3.9-4V4
								C0,1.8,1.8,0,3.9,0z"/>
						</g>
					</g>
					<g id="Group-46" transform="translate(26.619618, 16.699567)">
						<g id="Group-45" transform="translate(0.000000, 0.982327)">
							<g id="Group-43" transform="translate(101.154547, 0.000000)">
								<ellipse id="Oval_7_" class="st45" cx="11.4" cy="11.4" rx="11.4" ry="11.4"/>
								<ellipse id="Oval-Copy-10" class="st46" cx="27.2" cy="11.4" rx="11.4" ry="11.4"/>
								<path id="Path_6_" class="st47" d="M19.2,3.2l0.1-0.1c2.2,2.1,3.5,5,3.5,8.3s-1.4,6.2-3.5,8.3c-2.2-2.1-3.6-5-3.6-8.3
									C15.8,8.2,17.1,5.3,19.2,3.2l0.1-0.1L19.2,3.2z"/>
							</g>
							<path id="Rectangle_14_" class="st45" d="M1.6,18.7h23.9c0.9,0,1.6,0.7,1.6,1.6v17.3c0,0.9-0.7,1.6-1.6,1.6H1.6
								c-0.9,0-1.6-0.7-1.6-1.6V20.2C0,19.4,0.7,18.7,1.6,18.7z"/>
						</g>
						<g id="Group-44" transform="translate(0.000000, 0.589397)">
							<path id="Rectangle_15_" class="st48" d="M3.5,51.1h19.7c2,0,3.5,1.6,3.5,3.5s-1.6,3.5-3.5,3.5H3.5c-2,0-3.5-1.6-3.5-3.5
								S1.6,51.1,3.5,51.1z"/>
							<path id="Rectangle_16_" class="st48" d="M3.5,68.8h49.3c2,0,3.5,1.6,3.5,3.5c0,2-1.6,3.5-3.5,3.5H3.5c-2,0-3.5-1.6-3.5-3.5
								C0,70.3,1.6,68.8,3.5,68.8z"/>
							<path id="Rectangle_17_" class="st48" d="M115.9,68.8h19.7c2,0,3.5,1.6,3.5,3.5c0,2-1.6,3.5-3.5,3.5h-19.7
								c-2,0-3.5-1.6-3.5-3.5C112.4,70.3,114,68.8,115.9,68.8z"/>
							<path id="Rectangle_18_" class="st48" d="M3.5,0h19.7c2,0,3.5,1.6,3.5,3.5s-1.6,3.5-3.5,3.5H3.5C1.6,7.1,0,5.5,0,3.5
								S1.6,0,3.5,0z"/>
							<path id="Rectangle-Copy-38" class="st48" d="M40.6,51.1h19.7c2,0,3.5,1.6,3.5,3.5s-1.6,3.5-3.5,3.5H40.6
								c-2,0-3.5-1.6-3.5-3.5S38.7,51.1,40.6,51.1z"/>
							<path id="Rectangle-Copy-39" class="st48" d="M78.5,51.1h19.7c2,0,3.5,1.6,3.5,3.5s-1.6,3.5-3.5,3.5H78.5
								c-2,0-3.5-1.6-3.5-3.5S76.5,51.1,78.5,51.1z"/>
							<path id="Rectangle-Copy-40" class="st48" d="M115.5,51.1h19.7c2,0,3.5,1.6,3.5,3.5s-1.6,3.5-3.5,3.5h-19.7
								c-2,0-3.5-1.6-3.5-3.5S113.6,51.1,115.5,51.1z"/>
						</g>
					</g>
				</g>
				<g id="Men1.1" transform="translate(0.000000, 27.000000)">
					<g id="LLeg" transform="translate(58.512695, 131.473650)">
						
							<linearGradient id="Path_31_" gradientUnits="userSpaceOnUse" x1="-775.2797" y1="924.0593" x2="-775.2028" y2="923.4894" gradientTransform="matrix(31.4267 0 0 -21.7266 24409.8125 20263.6504)">
							<stop  offset="0" style="stop-color:#FDC6C6"/>
							<stop  offset="1" style="stop-color:#FAB2B2"/>
						</linearGradient>
						<path id="Path_7_" class="st49" d="M45.9,184.2c0,0-0.1,8.7,5.2,11.8c5.3,3.1,13.6,8.8,13.6,8.8l-31.4,1.1l0.9-21.7
							L45.9,184.2z"/>
						<path id="Path_8_" class="st50" d="M32.9,194.7c2.4,0.3,1.9,3.8,6.3,3.6c3.2-0.1,8.2-6.1,12.3-3.9c6.3,3.3,13.7,7.9,15.5,8.9
							c1.8,1.1,2.5,5.1-2.8,5.6c-5.1,0.5-12,0.4-13.7,0.1c-1.7-0.3-4.9-2.5-7.5-2.2c-2.6,0.4-2.9,1.2-4.3,1.6
							c-1.4,0.4-5.8,0.5-6.2-0.7C31.9,206.5,31.4,194.6,32.9,194.7z"/>
						<path id="Path_9_" class="st51" d="M30.5,0c0,0,12,94.1,13,103c1,8.9,6.5,72.2,5.8,80.7c-0.8,8.6-16.9,8.6-19,2.2
							c-3-8.9-9.8-53.3-10.9-62.5s-0.7-20-5.3-29.5C10.8,87,0,2.4,0,2.4L30.5,0z"/>
						<path id="Path_10_" class="st52" d="M23.4,108.7l0,0.4c0.5,4.9,0.8,21.2,1.2,48.8l-0.7-4.1c-2.2-13.1-4.1-26.1-4.6-30.6
							c-1.1-9.1-0.7-19.6-5-28.9L14,93.8c-1.4-3-4.3-21-7.1-40.3l0.9,2.3C17.1,80.7,22.3,98.4,23.4,108.7z"/>
						<line id="Path-10" class="st53" x1="53.9" y1="196" x2="52.4" y2="198.2"/>
						<line id="Path-10_1_" class="st53" x1="56.5" y1="196.9" x2="55" y2="199.1"/>
					</g>
					<g id="RLeg" transform="translate(25.694421, 133.776553)">
						
							<linearGradient id="Path_55_" gradientUnits="userSpaceOnUse" x1="-712.4168" y1="917.9379" x2="-712.3788" y2="916.7455" gradientTransform="matrix(13.5938 0 0 -19.3428 9693.5049 17933.5801)">
							<stop  offset="0" style="stop-color:#FDC6C6"/>
							<stop  offset="1" style="stop-color:#FAB2B2"/>
						</linearGradient>
						<polygon id="Path_11_" class="st54" points="5.7,183.9 2.8,202.9 16.4,202.8 16,183.6 						"/>
						<path id="Path_12_" class="st50" d="M0.3,206c0-1.1,1-8.3,2.5-11.1c1.1-2.1,3.5-2.5,7.1-2.6c4.6,0,8.5,0.7,8.5,2.6
							c0,5.8,1.4,10.2,1.5,10.7c0.3,1.5-3.8,2.6-9.5,2.5C5.9,208,0.4,207.7,0.3,206z"/>
						<path id="Path_13_" class="st55" d="M47.9,0.8c0,0-6.2,42-10,68.6c-3.7,26.1-14.7,104-15.8,112.2C21,189,2,189,2.2,179.9
							s-1.6-65.6,2-73.9s0.5-18.1,0.6-26.2C4.9,71.7,10,1.3,10,1.3L47.9,0.8z"/>
						<path id="Path_14_" class="st56" d="M13.8,55.2l-0.3,1.1c-3.6,13-4.9,14.1-3.8,34.8l0,0.4c0,5.2-2.4,32.1-7.4,80.8l0-3
							c-0.2-19.8-0.9-55.7,1.9-63.1l0.1-0.2c3.5-8.4,0.5-18.1,0.6-26.2C4.9,71.7,10,1.3,10,1.3l6.5-0.1l0.1,3.2
							C17,29.6,16.1,46.5,13.8,55.2L13.8,55.2z"/>
						<line id="Path-9" class="st53" x1="8.3" y1="196.5" x2="13.3" y2="196.5"/>
						<line id="Path-9_1_" class="st53" x1="8.3" y1="199.1" x2="13.3" y2="199.1"/>
					</g>
					<g id="Head" transform="translate(46.019844, 0.000000)">
						
							<linearGradient id="Path_64_" gradientUnits="userSpaceOnUse" x1="-756.1591" y1="1065.1127" x2="-755.9791" y2="1063.6154" gradientTransform="matrix(24.3548 0 0 -29.6491 18429.5801 31599.7637)">
							<stop  offset="0" style="stop-color:#FFAFAF"/>
							<stop  offset="1" style="stop-color:#F07777"/>
						</linearGradient>
						<path id="Path_15_" class="st57" d="M4.2,49.7c0,0,5.2-1.2,5.4-9.8s0.1-11.5,0.1-11.5L22,28.2c0,0,0.1,9.6,0.1,13
							c0,9.3,6.4,8.5,6.4,8.5s-1.3,7.5-11.7,8.1C8.7,58.3,4.2,49.7,4.2,49.7z"/>
						<g id="Head1" transform="translate(0.513241, 0.000000)">
							
								<linearGradient id="Path_65_" gradientUnits="userSpaceOnUse" x1="-760.9906" y1="1062.6729" x2="-760.7563" y2="1061.6913" gradientTransform="matrix(28.5857 0 0 -27.2044 21770.2266 28922.5078)">
								<stop  offset="0" style="stop-color:#FDC6C6"/>
								<stop  offset="1" style="stop-color:#FAB2B2"/>
							</linearGradient>
							<path id="Path_16_" class="st58" d="M8,24.1c-5.1-0.2-4.3,7.3,1,7.3c0,0,5.7,11.5,14.7,11.6c4.3,0,5.7-3.9,7-6.6
								c1.3-2.7,2.2-6.8,2.3-9.3c0.1-2.7,0.1-11.4,0.1-11.4l-25.4,0L8,24.1z"/>
							<path id="Path_17_" class="st59" d="M23.4,37.5c0.8,0.4,1.7,0.3,2.4,0"/>
							<path id="Path-8" class="st60" d="M8.8,28.4c0.1-1.2-0.3-2.2-1.5-2.4"/>
							<path id="Path_18_" class="st61" d="M8,24.1c0,0,2.4,2.7,3.2,2.8c0.9,0.1-0.1-7.4,1.2-8.7c2.8-3,10.2,2.1,17.9,0.8
								c1.9-0.3,2.8,1.2,2.8,4.4c7.2-6.6,9.9-11.9,1.2-14c-0.1-5.6-3.3-7-9.5-4.4C24-2.6,13.3-1.5,8.4,8.2C4.9,4.7-0.1,7.5,2,12.7
								c-3.8,0-1.8,10.2,2.7,13.7C5.2,24.9,6.2,24.1,8,24.1z"/>
							<path id="Path_19_" class="st60" d="M21.6,35c0,0,2.4,2.3,5.5,0.4"/>
						</g>
					</g>
					<g id="LArm" transform="translate(75.023733, 54.907179)">
						
							<g id="Group-3_1_" transform="translate(76.137061, 15.721892) rotate(4.000000) translate(-76.137061, -15.721892) translate(65.137061, 2.221892)">
							
								<linearGradient id="Path_66_" gradientUnits="userSpaceOnUse" x1="-771.8106" y1="1063.7351" x2="-771.7607" y2="1062.5427" gradientTransform="matrix(20.9813 -1.8214 -1.4671 -26.0474 17764.0742 26294.3945)">
								<stop  offset="0" style="stop-color:#FDC6C6"/>
								<stop  offset="1" style="stop-color:#FAB2B2"/>
							</linearGradient>
							<path id="Path_20_" class="st62" d="M0,20.9c0,0,0.9-8.2,2.6-11.2c1.7-3,2-7.8,3.8-7.8C8.3,2,7,9.8,7,9.8s8.1-7,11.8-9.4
								c3.4-2.3,2.2,8.3,1.7,9.6C19.4,13.2,5,26.1,5,26.1S0.4,21.6,0,20.9z"/>
							<path id="Path_21_" class="st63" d="M7,9.8c-0.3,1.8-0.3,2.6-0.1,2.6s2.1-2.4,5.6-7.2L7,9.8z"/>
						</g>
						<path id="Path_22_" class="st64" d="M15.4,4.1c4.2,9,19.8,32.4,19.8,32.4S60.7,19.9,64,19.8c3.3,0,7.7,4.3,7.4,7.3
							c-0.3,3-28.2,29.1-37.2,28.9C20.2,55.6,2.7,19.3,0.9,14.5C-3.9,1.5,11.4-4.7,15.4,4.1z"/>
						<path id="Path-5" class="st65" d="M35.1,36.5c2,2.9,3.1,4.2,3.5,4s0-1.9-1.2-5.3L35.1,36.5z"/>
					</g>
					<g id="Body" transform="translate(28.636714, 49.040603)">
						<path id="Path_23_" class="st43" d="M0.1,11.4c-1.3,6.3,7.7,37.9,5.2,52.7C3.4,75.8,1.5,92,6.6,95.5
							c5.1,3.6,49.4,6.5,55.8-3.6c5-8,0.9-25.8,0-33.9c-1.8-16.2,0.9-44.2-2.1-49.9c-1.9-3.6-14.9-8.1-15.4-8
							c-0.5,0.1-1.6,5.2-9.9,5.2S23.1,0.1,22.6,0S1.3,5.8,0.1,11.4z"/>
						<path id="Path_24_" class="st66" d="M22.6,0L22.6,0c0.5,0.1,4.1,5.3,12.3,5.3s9.4-5,9.9-5.2c0.2-0.1,2,0.5,4.3,1.4l0,0.1
							c-5.9,9.9-22,11.1-30.7-0.2l-0.2-0.3l1-0.3C20.9,0.4,22.2,0,22.6,0L22.6,0z"/>
						<path id="Path_25_" class="st67" d="M0.2,15.8l0.7,0.1c7.7,1.1,12.2,2.8,13.5,5.2c0.9,1.6,0.5,6.8-1.2,15.8L13,37.9
							c-1.6,8.2,0.2,16.6,4.9,23.4l0.3,0.4c1.6,2.2,3.1,5.2,4.4,8.8c3.1,8.4-3.5,15.6,0.7,28.1l-0.9-0.1c-7.8-0.6-14.1-1.8-15.9-3
							C1.5,92,3.4,75.8,5.3,64.1C7.4,51.5,1.2,26.8,0.2,15.8z"/>
					</g>
					<g id="Rarm" transform="translate(0.000000, 54.330575)">
						<g id="Group-2" transform="translate(32.005886, 73.370299)">
							
								<linearGradient id="Path_67_" gradientUnits="userSpaceOnUse" x1="-749.7308" y1="924.7332" x2="-749.6539" y2="924.2933" gradientTransform="matrix(32.8802 0 0 -19.9695 24665.6777 18470.6133)">
								<stop  offset="0" style="stop-color:#FDC6C6"/>
								<stop  offset="1" style="stop-color:#FAB2B2"/>
							</linearGradient>
							<path id="Path_26_" class="st68" d="M5.8,0c0,0,2.9,3.5,5.5,3.9s13.1,2.5,13.7,2.8c0.6,0.3,2.7,1.4,4.5,3.1
								c1.5,1.5,4.2,5.1,3.3,5.7c-1,0.7-3.5-2.6-4.8-3.4c-1.4-0.8-3.4-1.6-3.4-1.6s5.2,6.2,4.8,7.3c-0.2,0.8-4.6,2.1-5.6,2
								c-0.9-0.1-6.1-3.9-8.4-4.3c-1.6-0.3-8.8-2.3-10.3-3.7C3.4,10.4,0,7.5,0,7.5L5.8,0z"/>
							<path id="Path_27_" class="st63" d="M28.3,18.6c-3.6-3.6-5.5-5.4-5.6-5.3c-0.2,0.1,1.4,2,4.7,5.7L28.3,18.6z"/>
							<path id="Path_28_" class="st63" d="M25.9,19.5c-2.7-2.5-4.1-3.6-4.3-3.5c-0.2,0.1,0.9,1.4,3.2,3.8L25.9,19.5z"/>
						</g>
						<path id="Path_29_" class="st64" d="M40.7,0.9c8.3,5.9,2.8,16.5-4.1,26.3c-6.5,9.1-16.2,22.9-16.2,22.9S38.7,70.2,40.5,74
							c1.8,3.7-2.8,10.7-8.4,8.8C26.5,80.9-5.7,57.1,0.9,45.8C10.8,28.7,30.9-6,40.7,0.9z"/>
						<path id="Path-6" class="st65" d="M20.3,50.1c-2.5-2.7-3.7-4.1-3.4-4.5c0.2-0.3,1.8,0.6,4.6,2.8L20.3,50.1z"/>
					</g>
				</g>
				<g id="Group-7" transform="translate(307.303057, 141.000000)">
					<path id="Rectangle_19_" class="st69" d="M40.1,137.1h68.6l0,0v72.2c0,2.2-1.8,4-4,4H20c-2.2,0-4-1.8-4-4v-48.1
						C16,147.9,26.7,137.1,40.1,137.1z"/>
					<polygon id="Rectangle_20_" class="st69" points="24.3,198.2 92,198.2 92,213.3 24.3,213.3 					"/>
					<polygon id="Path_30_" class="st69" points="110.5,212.7 114.7,223.4 94.1,223.4 97.7,212.7 					"/>
					<polygon id="Path_32_" class="st69" points="179.9,212.7 184.1,223.4 163.5,223.4 167.1,212.7 					"/>
					<path id="Rectangle_21_" class="st70" d="M92.3,58.4l16.9-0.4l0,0v86.3H68.7V82.5C68.7,69.4,79.1,58.7,92.3,58.4z"/>
					<path id="Rectangle_22_" class="st71" d="M100.7,58h61.7c12.1,0,21.8,9.8,21.8,21.8v64.4c0,1-0.8,1.7-1.7,1.7H76.6l0,0V82.1
						C76.6,68.8,87.4,58,100.7,58z"/>
					<path id="Rectangle_23_" class="st69" d="M169.2,58c8.3,0,15,6.7,15,15v62.5c0,1-0.8,1.7-1.7,1.7h-28.3l0,0V73
						C154.1,64.7,160.9,58,169.2,58z"/>
					<path id="Rectangle_24_" class="st71" d="M36.9,145.2h67.5l0,0v57.9H24.3v-45.3C24.3,150.8,30,145.2,36.9,145.2z"/>
					
						<g id="Wom1.4" transform="translate(72.553803, 112.500000) scale(-1, 1) translate(-72.553803, -112.500000) translate(0.053803, 0.000000)">
						<g id="Head_1_" transform="translate(28.822991, 0.409712)">
							<path id="Path_33_" class="st61" d="M8.8,50.1C-1.9,47.6-2.6,32.8,5.5,27.7C-2.9,10.1,16.6-7.5,29.9,3.3
								c8.7-3.7,16,10.9,7.9,22.2c3.4,19.5-3.5,24.5-16.1,24.8L8.8,50.1z"/>
							
								<linearGradient id="Path_68_" gradientUnits="userSpaceOnUse" x1="1193.6089" y1="950.6874" x2="1193.7776" y2="949.19" gradientTransform="matrix(-23.5702 0 0 -29.6296 28151.6758 28185.3906)">
								<stop  offset="0" style="stop-color:#FFAFAF"/>
								<stop  offset="1" style="stop-color:#F07777"/>
							</linearGradient>
							<path id="Path_34_" class="st72" d="M8.9,46.6c0,0,5.2-1.2,5.4-9.8s0.1-11.5,0.1-11.5l11.5-0.2c0,0,0.1,9.6,0.1,13
								c0,9.3,6.5,8.5,6.5,8.5s-1.3,7.5-11.8,8.1C12.6,55.1,8.9,46.6,8.9,46.6z"/>
							
								<linearGradient id="Path_69_" gradientUnits="userSpaceOnUse" x1="1188.921" y1="947.3212" x2="1189.1553" y2="946.3518" gradientTransform="matrix(-27.8174 0 0 -26.3074 33092.8281 24931.9082)">
								<stop  offset="0" style="stop-color:#FDC6C6"/>
								<stop  offset="1" style="stop-color:#FAB2B2"/>
							</linearGradient>
							<path id="Path_35_" class="st73" d="M11.7,21c-5.1-0.2-4.3,7.3,1,7.3c0,0,3.1,10.7,13.9,10.7c8.7,0,9.3-12.5,9.4-14.9
								c0.1-2.6,0.1-11.4,0.1-11.4l-24.6,0L11.7,21z"/>
							<path id="Path_36_" class="st74" d="M24.5,31.8c0,0,2.6,2.2,5.5,0.1"/>
							<path id="Path_37_" class="st59" d="M26.2,34.3c0.8,0.4,1.6,0.4,2.3,0"/>
							<path id="Path-8_1_" class="st75" d="M12.2,25.1c0.1-1.2-0.3-2.2-1.5-2.4"/>
							<path id="Path_38_" class="st61" d="M10.9,20.1c0,0,2.8,3.8,3.4,3.8c0.6,0,0.8-4.9,0.8-4.9c3.5-0.3,12.2-2,14.3-6.1
								c1.5,3.6,4.4,5.2,6.2,4.9l0.4,7.6l0.9-15.3H10.2L10.9,20.1z"/>
						</g>
						<g id="LLeg_1_" transform="translate(32.500454, 116.015625)">
							
								<linearGradient id="Path_70_" gradientUnits="userSpaceOnUse" x1="1186.5703" y1="826.0728" x2="1186.6472" y2="825.2513" gradientTransform="matrix(-26.4745 0 0 -21.9743 31468.998 18232.4082)">
								<stop  offset="0" style="stop-color:#FDC6C6"/>
								<stop  offset="1" style="stop-color:#FAB2B2"/>
							</linearGradient>
							<path id="Path_39_" class="st76" d="M57.9,82.1c0,0-4.6,9.3-0.8,12.2c3.8,2.9,13.8,8.4,13.8,8.4l-26.5-1.7l5.9-20.3
								L57.9,82.1z"/>
							<path id="Path_40_" class="st77" d="M46.9,91c1.3,0.2-0.1,4.6,2.7,4.9c2.8,0.3,4.2-3.8,7.4-2.5c3.2,1.3,14.9,8.2,15.3,11
								c0.5,2.8-3.9,3.6-9.9,3s-7.1-2.8-11.6-1.9c-4.5,0.9-7.8-0.5-7.7-3.8C43.5,98.3,45.6,90.8,46.9,91z"/>
							<path id="Path-14" class="st78" d="M58.5,94L58,94.8c-0.3,0.5-0.2,1.1,0.3,1.4c0,0,0,0,0.1,0l7.7,4.3c0.3,0.2,0.6,0.2,0.9,0
								l1.2-0.6l0,0c-1.9-1.4-3.5-2.4-5.2-3.5C61.6,95.7,60.1,94.9,58.5,94z"/>
							
								<linearGradient id="Path_71_" gradientUnits="userSpaceOnUse" x1="1167.78" y1="850.5934" x2="1168.2656" y2="851.4879" gradientTransform="matrix(-89.1149 0 0 -87.9012 104079.2188 74847.6875)">
								<stop  offset="0" style="stop-color:#28324F"/>
								<stop  offset="1" style="stop-color:#222735"/>
							</linearGradient>
							<path id="Path_41_" class="st79" d="M18,0c8,0.4,52.6,10.2,60.7,11.9s15,10.8,8.8,21.3C80.6,45,62.7,78.5,58.3,86.1
								c-2.2,3.7-13,1.6-10.5-4.6c4.8-11.7,7-41.1,19.1-51.8c0,0-40.8,7.1-58.4-1C-4.2,22.7-1.4-0.8,18,0z"/>
						</g>
						<g id="LArm_1_" transform="translate(56.673764, 49.500000)">
							
								<linearGradient id="Path_72_" gradientUnits="userSpaceOnUse" x1="1174.8218" y1="891.5344" x2="1174.8782" y2="890.342" gradientTransform="matrix(-18.13 0 0 -21.1641 21358.5313 18864.7715)">
								<stop  offset="0" style="stop-color:#FDC6C6"/>
								<stop  offset="1" style="stop-color:#FAB2B2"/>
							</linearGradient>
							<path id="Path_42_" class="st80" d="M50.6,19.1c0,0-0.1-6.5,2.2-9.9s2.4-7,4.1-6.9c1.7,0.1,0,8.5,0,8.5s2.2-0.8,3.8-1.9
								s6.3-6.3,7.5-5.4C70,5.1,67,14,65.3,15.8c-1.7,1.8-10.8,7.6-10.8,7.6L50.6,19.1z"/>
							<path id="Path_43_" class="st81" d="M1.4,15.2c3.7,8.7,10.6,24.5,13.4,29.3c3.5,5.9,9.1,8.6,15.6,4.1
								C37.2,44,56,26,56.6,21.9c0.5-4.1-4.1-9-8.2-6.5s-21.5,17-21.5,17S19.8,14.4,14.2,4C9.3-4.9-4.3,2.1,1.4,15.2z"/>
							<path id="Path_44_" class="st82" d="M26.9,32.4c1.3,4.3,2,6.3,2.3,6s0.2-2.8-0.3-7.7L26.9,32.4z"/>
						</g>
						
							<g id="PhoneMini4" transform="translate(119.643271, 61.431243) scale(-1, 1) rotate(-18.000000) translate(-119.643271, -61.431243) translate(111.143271, 45.931243)">
							<g id="Group-3_2_" transform="translate(0.000000, -0.000000)">
								<path id="Rectangle_25_" class="st83" d="M2.9,1.1l10,0c1.3,0,2.4,1.1,2.4,2.4l0,24.7c0,1.3-1.1,2.4-2.4,2.4l-10,0
									c-1.3,0-2.4-1.1-2.4-2.4l0-24.7C0.5,2.2,1.5,1.1,2.9,1.1z"/>
								
									<rect id="Rectangle_26_" x="1.6" y="0.7" transform="matrix(-1 2.679782e-06 -2.679782e-06 -1 17.9192 30.9375)" class="st84" width="14.8" height="29.5"/>
								<path id="Rectangle_27_" class="st85" d="M4.2,1.8l1.1,0c0.2,0,0.4,0.2,0.5,0.4l0,0.1c0,0.3,0.2,0.5,0.5,0.5l5.4,0
									c0.2,0,0.4-0.2,0.5-0.4l0-0.1c0-0.3,0.2-0.5,0.5-0.5l1.1,0c0.8,0,1.5,0.6,1.6,1.4l0,0.1l0,0l0,24c0,1-0.9,1.9-1.9,1.9H4.5
									c-1,0-1.8-0.8-1.9-1.8l0-0.1c0,0,0,0,0,0l0-24C2.6,2.5,3.3,1.8,4.2,1.8z"/>
							</g>
						</g>
						<g id="Body_1_" transform="translate(20.771497, 45.468402)">
							<path id="Path_45_" class="st81" d="M0,8.8c0,0,9,30.1,9.3,35.8c0.3,5.7-7.3,22.4-6.1,26.7c3,9.8,41.2,14,42.6,0.8
								c0.7-6.1-0.7-11.6,0.9-18.9c1.6-7.2,8.2-18,4.5-28.1S48.4,5.7,45.8,4S37,0.3,37,0.3c-3,4.4-13.2,4.4-18-0.3
								C18.9,0,6.9,2.3,0,8.8z"/>
							<path id="Path_46_" class="st86" d="M8.1,13.7c6,9.5,6,26.1,9.2,28.2c3.2,2.2,15.7,0,15.7,1.8c0,1.7-17.3,17.5-14.5,25
								c1.5,3.9,1.1,7.5-1.2,10.6l-0.7-0.2c-6.8-1.5-12.3-4.3-13.4-7.8c-1.3-4.2,7.2-21,6.9-26.7c-0.2-4.8-7.4-27.3-9.5-33.9
								C2.4,7.6,4.8,8.6,8.1,13.7z"/>
						</g>
						<g id="RArm" transform="translate(0.000000, 51.767578)">
							
								<linearGradient id="Path_73_" gradientUnits="userSpaceOnUse" x1="1219.8295" y1="869.1345" x2="1219.9064" y2="868.7999" gradientTransform="matrix(-25.6841 0 0 -13.6055 31381.6953 11852.8027)">
								<stop  offset="0" style="stop-color:#FDC6C6"/>
								<stop  offset="1" style="stop-color:#FAB2B2"/>
							</linearGradient>
							<path id="Path_47_" class="st87" d="M39,32.6c0,0,7.6-6.7,9.9-7.5c2.3-0.8,15.9-1.7,15.8,0c-0.1,1.9-7.4,1.8-8.1,2.7
								c-0.8,0.9-0.9,7.3-3.8,8c-2.8,0.7-11.4,1.9-11.4,1.9L39,32.6z"/>
							<path id="Path_48_" class="st81" d="M18.9,4.2c-8,11.3-14.8,28.4-17.4,35.1s0,16.8,11.5,14.8c11.5-2,29.7-12.7,31.7-15.8
								s-1-8.8-4.9-8.1c-3.6,0.7-21.3,8.2-21.3,8.2s11.4-20.3,14.2-25.7C37.4,3.7,25.9-5.7,18.9,4.2z"/>
							<path id="Path_49_" class="st82" d="M18.7,38.3c-4,2-5.7,2.6-5.3,1.7c0.5-0.8,3-2.7,7.5-5.6L18.7,38.3z"/>
						</g>
						<g id="RLeg_1_" transform="translate(19.324594, 112.500000)">
							
								<linearGradient id="Path_74_" gradientUnits="userSpaceOnUse" x1="1193.943" y1="832.9421" x2="1194.0199" y2="832.3097" gradientTransform="matrix(-33.6118 0 0 -24.4783 40234.6406 20477.0195)">
								<stop  offset="0" style="stop-color:#FDC6C6"/>
								<stop  offset="1" style="stop-color:#FAB2B2"/>
							</linearGradient>
							<path id="Path_50_" class="st88" d="M98.9,86c0,0-0.1,11,8.9,15.1c9,4.1,15.4,3.9,14.6,7c-0.8,3.2-24.3,3-26.5,0.6
								c-1.9-2.1-5.9-21.7-7.1-20.2L98.9,86z"/>
							<path id="Path_51_" class="st77" d="M91.8,98.3c1-1.9,1.1,3.5,5,2.3c3.2-1,4.3-6.6,6.4-5.4s20,10.8,20.1,10.8
								c2.2,1.2,1.6,4.8-2.1,5.4c-4.1,0.7-25.6,0.2-26.8-0.9S90.9,99.8,91.8,98.3z"/>
							<path id="Path-14_1_" class="st78" d="M105.8,98.5c-0.3,0-0.5,0.2-0.8,0.6c-0.3,0.5-0.2,1.1,0.3,1.4c0.1,0,0.1,0.1,0.2,0.1
								l9.3,3.8c0.4,0.1,0.8,0,0.9-0.4c0.1-0.2,0.1-0.4,0-0.6l0,0C115.6,103.1,106.5,98.5,105.8,98.5z"/>
							<path id="Path_52_" class="st89" d="M5.2,0.2C-2.6,16.6-1,27.6,9.9,33.2c15.8,8.2,63.2-1.5,63.2-1.5s-0.8,6.8,0,12.9
								c2.2,15.9,12.7,42.4,15,45.7c3.1,4.6,12.5,1.1,12.6-2.7s-7.1-52.8-8.2-62.1c-1.1-9.3-4.6-10.7-14.7-13.2
								c-2.3-0.6-29.8-7.4-32.3-7.2C31.2,6.2,17.7,4.6,5.2,0.2z"/>
							<path id="Path_53_" class="st56" d="M18,30.7c15.7,1.8,57.2-1.9,58.9-0.2c1.6,1.6,1.3,28.9,4.9,44.7l-0.5-1.5
								c-3.4-9.3-6.8-20.7-8-29.1c-0.8-6.1,0-12.9,0-12.9l-1.9,0.4c-9,1.7-47.4,8.3-61.3,1.1C2.4,29.3-0.7,22.9,0.7,13.8
								C3.1,24,8.8,29.7,18,30.7z"/>
						</g>
					</g>
					<path id="Rectangle_28_" class="st69" d="M115.6,137.1h68.6l0,0v74.4c0,1-0.8,1.7-1.7,1.7h-91l0,0v-52.1
						C91.5,147.9,102.3,137.1,115.6,137.1z"/>
				</g>
				<g id="Group-80" transform="translate(503.001631, 295.119048)">
					<path id="Rectangle_29_" class="st90" d="M0,17.6h7c6.8,0,12.3,5.5,12.3,12.3l0,0l0,0h-7C5.5,30,0,24.4,0,17.6L0,17.6L0,17.6z"
						/>
					<path id="Rectangle_30_" class="st37" d="M8.8,10.6h5.3c3.4,0,6.2,2.8,6.2,6.2l0,0l0,0H15C11.6,16.7,8.8,14,8.8,10.6L8.8,10.6
						L8.8,10.6z"/>
					<path id="Rectangle_31_" class="st37" d="M36.1,16.7H30c-5.8,0-10.6,4.7-10.6,10.6l0,0l0,0h6.2C31.4,27.3,36.1,22.6,36.1,16.7
						L36.1,16.7L36.1,16.7z"/>
					<path id="Rectangle_32_" class="st90" d="M28.5,5.5l-5,2c-3.9,1.6-5.8,6-4.2,10l0,0l0,0l5-2C28.2,13.9,30.1,9.4,28.5,5.5
						L28.5,5.5L28.5,5.5z"/>
					<path id="Path_54_" class="st37" d="M15.6,4.4c2.8,1.7,4.5,5.1,4.6,8.7l0,0.3v26.2h-1.4V13.5c0-3.1-1.4-5.9-3.6-7.5L15,5.9
						L15.6,4.4z"/>
					<g id="Group-84" transform="translate(3.523654, 30.833333)">
						<g id="Rectangle_33_">
							<path id="path-22_1_" class="st91" d="M5.3,0h22c1,0,1.9,0.8,1.9,1.8v0.1c0,1.1,0.5,2.2,1.5,2.8l0.6,0.4
								c0.9,0.7,1.5,1.7,1.5,2.8v27.2c0,1.9-1.6,3.5-3.6,3.5H3.6c-2,0-3.6-1.6-3.6-3.5V7.9c0-1.1,0.5-2.2,1.5-2.8L2,4.7
								c0.9-0.6,1.4-1.6,1.4-2.6l0-0.3C3.5,0.8,4.3,0,5.3,0z"/>
						</g>
						<defs>
							<filter id="Adobe_OpacityMaskFilter_15_" filterUnits="userSpaceOnUse" x="-0.9" y="-1.7" width="10.8" height="42.8">
								<feColorMatrix  type="matrix" values="1 0 0 0 0  0 1 0 0 0  0 0 1 0 0  0 0 0 1 0"/>
							</filter>
						</defs>
						<mask maskUnits="userSpaceOnUse" x="-0.9" y="-1.7" width="10.8" height="42.8" id="mask-23_1_">
							<g class="st92">
								<path id="path-22_2_" class="st6" d="M5.3,0h22c1,0,1.9,0.8,1.9,1.8v0.1c0,1.1,0.5,2.2,1.5,2.8l0.6,0.4
									c0.9,0.7,1.5,1.7,1.5,2.8v27.2c0,1.9-1.6,3.5-3.6,3.5H3.6c-2,0-3.6-1.6-3.6-3.5V7.9c0-1.1,0.5-2.2,1.5-2.8L2,4.7
									c0.9-0.6,1.4-1.6,1.4-2.6l0-0.3C3.5,0.8,4.3,0,5.3,0z"/>
							</g>
						</mask>
						<path id="Rectangle_34_" class="st93" d="M-0.9-1.7H8c-3.9,15,5.7,27.5,0,42.8h-8.9V-1.7z"/>
						<defs>
							<filter id="Adobe_OpacityMaskFilter_16_" filterUnits="userSpaceOnUse" x="0" y="23.6" width="32.7" height="3.5">
								<feColorMatrix  type="matrix" values="1 0 0 0 0  0 1 0 0 0  0 0 1 0 0  0 0 0 1 0"/>
							</filter>
						</defs>
						<mask maskUnits="userSpaceOnUse" x="0" y="23.6" width="32.7" height="3.5" id="mask-23_2_">
							<g class="st94">
								<path id="path-22_3_" class="st6" d="M5.3,0h22c1,0,1.9,0.8,1.9,1.8v0.1c0,1.1,0.5,2.2,1.5,2.8l0.6,0.4
									c0.9,0.7,1.5,1.7,1.5,2.8v27.2c0,1.9-1.6,3.5-3.6,3.5H3.6c-2,0-3.6-1.6-3.6-3.5V7.9c0-1.1,0.5-2.2,1.5-2.8L2,4.7
									c0.9-0.6,1.4-1.6,1.4-2.6l0-0.3C3.5,0.8,4.3,0,5.3,0z"/>
							</g>
						</mask>
						
							<rect id="Rectangle_35_" x="0" y="23.6" transform="matrix(-0.809 -0.5878 0.5878 -0.809 14.639 55.4345)" class="st95" width="32.7" height="3.5"/>
						<defs>
							<filter id="Adobe_OpacityMaskFilter_17_" filterUnits="userSpaceOnUse" x="0" y="14" width="32.7" height="3.5">
								<feColorMatrix  type="matrix" values="1 0 0 0 0  0 1 0 0 0  0 0 1 0 0  0 0 0 1 0"/>
							</filter>
						</defs>
						<mask maskUnits="userSpaceOnUse" x="0" y="14" width="32.7" height="3.5" id="mask-23_3_">
							<g class="st96">
								<path id="path-22_4_" class="st6" d="M5.3,0h22c1,0,1.9,0.8,1.9,1.8v0.1c0,1.1,0.5,2.2,1.5,2.8l0.6,0.4
									c0.9,0.7,1.5,1.7,1.5,2.8v27.2c0,1.9-1.6,3.5-3.6,3.5H3.6c-2,0-3.6-1.6-3.6-3.5V7.9c0-1.1,0.5-2.2,1.5-2.8L2,4.7
									c0.9-0.6,1.4-1.6,1.4-2.6l0-0.3C3.5,0.8,4.3,0,5.3,0z"/>
							</g>
						</mask>
						
							<rect id="Rectangle_36_" x="0" y="14" transform="matrix(-0.809 -0.5878 0.5878 -0.809 20.2884 38.0474)" class="st97" width="32.7" height="3.5"/>
					</g>
					<path id="Rectangle_37_" class="st90" d="M10.9,0.8L15.1,2c3.5,1,5.5,4.6,4.5,8.1l0,0l0,0l-4.2-1.2C11.9,7.9,9.9,4.3,10.9,0.8
						L10.9,0.8L10.9,0.8z"/>
				</g>
			</g>
		</g>
	</g>
</g>
</svg>
