<?xml version="1.0" encoding="utf-8"?>
<!-- Generator: Adobe Illustrator 24.0.1, SVG Export Plug-In . SVG Version: 6.00 Build 0)  -->
<svg version="1.1" id="Layer_1" xmlns="http://www.w3.org/2000/svg" xmlns:xlink="http://www.w3.org/1999/xlink" x="0px" y="0px"
	 viewBox="0 0 747 547" style="enable-background:new 0 0 747 547;" xml:space="preserve">
<style type="text/css">
	.st0{opacity:8.454241e-02;fill:#0BAB64;enable-background:new    ;}
	.st1{opacity:7.026599e-02;fill-rule:evenodd;clip-rule:evenodd;fill:#00CFE8;enable-background:new    ;}
	.st2{opacity:7.393973e-02;fill-rule:evenodd;clip-rule:evenodd;fill:#0BAB64;enable-background:new    ;}
	.st3{fill-rule:evenodd;clip-rule:evenodd;fill:#E6FFF2;}
	.st4{opacity:0.3834;fill-rule:evenodd;clip-rule:evenodd;fill:#2C2F33;enable-background:new    ;}
	.st5{fill-rule:evenodd;clip-rule:evenodd;fill:#D4EFFF;}
	.st6{fill-rule:evenodd;clip-rule:evenodd;fill:#0BAB64;}
	.st7{filter:url(#filter-2);}
	.st8{fill-rule:evenodd;clip-rule:evenodd;}
	.st9{fill-rule:evenodd;clip-rule:evenodd;fill:#FFFFFF;}
	.st10{opacity:0.4541;fill-rule:evenodd;clip-rule:evenodd;fill:#3BB78F;enable-background:new    ;}
	.st11{fill-rule:evenodd;clip-rule:evenodd;fill:#3BB78F;}
	.st12{filter:url(#filter-5);}
	.st13{filter:url(#Adobe_OpacityMaskFilter);}
	.st14{mask:url(#mask-4_1_);}
	.st15{filter:url(#filter-7);}
	.st16{fill:none;stroke:#0BAB64;stroke-width:4.004;stroke-linecap:round;}
	.st17{filter:url(#Adobe_OpacityMaskFilter_1_);}
	.st18{opacity:0.77;mask:url(#mask-4_2_);fill-rule:evenodd;clip-rule:evenodd;fill:#E6FFF2;}
	.st19{filter:url(#Adobe_OpacityMaskFilter_2_);}
	.st20{mask:url(#mask-4_3_);fill-rule:evenodd;clip-rule:evenodd;fill:#0BAB64;}
	.st21{filter:url(#Adobe_OpacityMaskFilter_3_);}
	.st22{mask:url(#mask-4_4_);fill-rule:evenodd;clip-rule:evenodd;fill:#0BAB64;fill-opacity:0.4019;}
	.st23{filter:url(#Adobe_OpacityMaskFilter_4_);}
	.st24{mask:url(#mask-4_5_);fill-rule:evenodd;clip-rule:evenodd;fill:#0BAB64;fill-opacity:0.4517;}
	.st25{filter:url(#Adobe_OpacityMaskFilter_5_);}
	.st26{mask:url(#mask-4_6_);fill-rule:evenodd;clip-rule:evenodd;fill:#0BAB64;fill-opacity:0.4517;}
	.st27{filter:url(#Adobe_OpacityMaskFilter_6_);}
	.st28{mask:url(#mask-4_7_);fill-rule:evenodd;clip-rule:evenodd;fill:#0BAB64;fill-opacity:0.4517;}
	.st29{filter:url(#filter-9);}
	.st30{opacity:0.5757;fill-rule:evenodd;clip-rule:evenodd;fill:#3BB78F;enable-background:new    ;}
	.st31{fill-rule:evenodd;clip-rule:evenodd;fill:#232323;}
	.st32{fill-rule:evenodd;clip-rule:evenodd;fill:url(#Path_155_);}
	.st33{fill-rule:evenodd;clip-rule:evenodd;fill:url(#Path_175_);}
	.st34{fill:none;stroke:#F77B7B;stroke-width:1.5;stroke-linecap:round;}
	.st35{fill:none;stroke:#F49494;stroke-linecap:round;}
	.st36{fill:none;stroke:#F77B7B;stroke-linecap:round;}
	.st37{fill-rule:evenodd;clip-rule:evenodd;fill:url(#Path_176_);}
	.st38{fill-rule:evenodd;clip-rule:evenodd;fill:#222D4E;}
	.st39{fill-rule:evenodd;clip-rule:evenodd;fill:#FFFFFF;fill-opacity:0.541;}
	.st40{fill-rule:evenodd;clip-rule:evenodd;fill:url(#Path_177_);}
	.st41{fill-rule:evenodd;clip-rule:evenodd;fill:url(#Path_178_);}
	.st42{fill-rule:evenodd;clip-rule:evenodd;fill:#6A5EE3;}
	.st43{fill-rule:evenodd;clip-rule:evenodd;fill-opacity:0.3028;}
	.st44{fill-rule:evenodd;clip-rule:evenodd;fill:#6A5EE3;fill-opacity:0.1994;}
	.st45{fill-rule:evenodd;clip-rule:evenodd;fill:url(#Path_179_);}
	.st46{fill-rule:evenodd;clip-rule:evenodd;fill:#F8CFCF;}
	.st47{fill-rule:evenodd;clip-rule:evenodd;fill:#4B4B4B;}
	.st48{fill:none;stroke:#FFFFFF;stroke-width:2;stroke-linecap:round;}
	.st49{fill-rule:evenodd;clip-rule:evenodd;fill:#383838;}
	.st50{opacity:0.2836;fill-rule:evenodd;clip-rule:evenodd;fill:#FFFFFF;fill-opacity:0.1925;enable-background:new    ;}
	.st51{fill-rule:evenodd;clip-rule:evenodd;fill:#2E2E2E;}
	.st52{fill-rule:evenodd;clip-rule:evenodd;fill:#F28585;}
	.st53{fill-rule:evenodd;clip-rule:evenodd;fill:#877BFF;}
	.st54{fill-rule:evenodd;clip-rule:evenodd;fill-opacity:0.1599;}
	.st55{fill:none;stroke:#5386BF;stroke-linecap:round;}
	.st56{fill-rule:evenodd;clip-rule:evenodd;fill:#F8C5C5;}
	.st57{fill-rule:evenodd;clip-rule:evenodd;fill:url(#Path_180_);}
	.st58{fill-rule:evenodd;clip-rule:evenodd;fill:#424242;}
	.st59{fill:none;stroke:#CC6969;stroke-linecap:round;}
	.st60{fill:none;stroke:#DE6767;stroke-linecap:round;}
	.st61{fill-rule:evenodd;clip-rule:evenodd;fill:#5E54C7;}
	.st62{fill-rule:evenodd;clip-rule:evenodd;fill:#CBC6FF;}
	.st63{fill:#6182EC;}
	.st64{fill-rule:evenodd;clip-rule:evenodd;fill:#96EFFA;}
	.st65{fill:#74CFDB;}
	.st66{fill:#EAEFFF;}
	.st67{fill:#7AD2DD;}
	.st68{fill-rule:evenodd;clip-rule:evenodd;fill:#C2FFF4;}
	.st69{fill-rule:evenodd;clip-rule:evenodd;fill:url(#Path_181_);}
	.st70{fill-rule:evenodd;clip-rule:evenodd;fill:url(#Path_182_);}
	.st71{fill-rule:evenodd;clip-rule:evenodd;fill:#4C3216;}
	.st72{filter:url(#Adobe_OpacityMaskFilter_7_);}
	.st73{mask:url(#mask-19_1_);fill-rule:evenodd;clip-rule:evenodd;fill:#5E3F23;}
	.st74{fill-rule:evenodd;clip-rule:evenodd;fill:url(#Path_183_);}
	.st75{fill-rule:evenodd;clip-rule:evenodd;fill:#EEDFE8;}
	.st76{fill-rule:evenodd;clip-rule:evenodd;fill:#EC7AA5;}
	.st77{fill-rule:evenodd;clip-rule:evenodd;fill:#413C75;}
	.st78{fill-rule:evenodd;clip-rule:evenodd;fill:url(#Path_184_);}
	.st79{fill-rule:evenodd;clip-rule:evenodd;fill:#EA5455;}
	.st80{fill-rule:evenodd;clip-rule:evenodd;fill:url(#Path_185_);}
	.st81{fill-rule:evenodd;clip-rule:evenodd;fill:url(#Path_186_);}
	.st82{fill-rule:evenodd;clip-rule:evenodd;fill:#FFE4F4;}
	.st83{fill-rule:evenodd;clip-rule:evenodd;fill:url(#Path_187_);}
	.st84{fill-rule:evenodd;clip-rule:evenodd;fill:#524D87;}
	.st85{fill-rule:evenodd;clip-rule:evenodd;fill:#FFFFFF;fill-opacity:5.610795e-02;}
	.st86{fill-rule:evenodd;clip-rule:evenodd;fill:url(#Path_188_);}
	.st87{fill-rule:evenodd;clip-rule:evenodd;fill:url(#Rectangle_45_);}
	.st88{fill-rule:evenodd;clip-rule:evenodd;fill:#2C2F33;}
	.st89{fill:#FFFFFF;}
	.st90{fill-rule:evenodd;clip-rule:evenodd;fill:#E9E9E9;}
	.st91{fill-rule:evenodd;clip-rule:evenodd;fill:#D3D3D3;}
	.st92{fill-rule:evenodd;clip-rule:evenodd;fill:#DBDBDB;}
	.st93{fill-rule:evenodd;clip-rule:evenodd;fill:#92691F;}
	.st94{fill-rule:evenodd;clip-rule:evenodd;fill:#391B0B;}
	.st95{fill-rule:evenodd;clip-rule:evenodd;fill:#81411E;}
	.st96{fill-rule:evenodd;clip-rule:evenodd;fill:#7A3636;}
	.st97{fill-rule:evenodd;clip-rule:evenodd;fill:#FFFFFF;fill-opacity:0.1925;}
	.st98{fill-rule:evenodd;clip-rule:evenodd;fill:url(#Path_189_);}
	.st99{fill-rule:evenodd;clip-rule:evenodd;fill:url(#Path_190_);}
	.st100{fill-rule:evenodd;clip-rule:evenodd;fill:#2C272E;}
	.st101{fill-rule:evenodd;clip-rule:evenodd;fill:#E5AA41;}
	.st102{fill-rule:evenodd;clip-rule:evenodd;fill:url(#Path_191_);}
	.st103{fill-rule:evenodd;clip-rule:evenodd;fill:url(#Rectangle_47_);}
	.st104{fill-rule:evenodd;clip-rule:evenodd;fill:url(#Rectangle_48_);}
	.st105{fill-rule:evenodd;clip-rule:evenodd;fill:url(#Path_192_);}
	.st106{fill-rule:evenodd;clip-rule:evenodd;fill:#FFB66F;}
	.st107{fill-rule:evenodd;clip-rule:evenodd;fill:#FFEDC2;}
	.st108{fill-rule:evenodd;clip-rule:evenodd;fill:url(#Path_193_);}
	.st109{fill-rule:evenodd;clip-rule:evenodd;fill:#33373E;}
	.st110{fill-rule:evenodd;clip-rule:evenodd;fill:url(#Path_194_);}
	.st111{fill-rule:evenodd;clip-rule:evenodd;fill:#42474F;}
	.st112{fill-rule:evenodd;clip-rule:evenodd;fill:url(#Path_195_);}
	.st113{fill-rule:evenodd;clip-rule:evenodd;fill:#9E5229;}
	.st114{fill-rule:evenodd;clip-rule:evenodd;fill-opacity:0.1994;}
	.st115{fill-rule:evenodd;clip-rule:evenodd;fill:#FB9934;}
	.st116{fill-rule:evenodd;clip-rule:evenodd;fill:#FF9F43;}
	.st117{fill-rule:evenodd;clip-rule:evenodd;fill:#FFF6E1;}
	.st118{fill-rule:evenodd;clip-rule:evenodd;fill:url(#Path_196_);}
</style>
<filter  filterUnits="objectBoundingBox" height="132.6%" id="filter-9" width="122.5%" x="-8.7%" y="-12.7%">
	<feOffset  dx="6" dy="6" in="SourceAlpha" result="shadowOffsetOuter1"></feOffset>
	<feGaussianBlur  in="shadowOffsetOuter1" result="shadowBlurOuter1" stdDeviation="8"></feGaussianBlur>
	
		<feColorMatrix  in="shadowBlurOuter1" type="matrix" values="0 0 0 0 0.701879529   0 0 0 0 0.701879529   0 0 0 0 0.701879529  0 0 0 0.208724869 0">
		</feColorMatrix>
</filter>
<filter  filterUnits="objectBoundingBox" height="198.7%" id="filter-7" width="149.0%" x="-24.7%" y="-28.4%">
	<feMorphology  in="SourceAlpha" operator="dilate" radius="2.002" result="shadowSpreadOuter1"></feMorphology>
	<feOffset  dx="0" dy="13" in="shadowSpreadOuter1" result="shadowOffsetOuter1"></feOffset>
	<feMorphology  in="SourceAlpha" operator="erode" radius="2.002" result="shadowInner"></feMorphology>
	<feOffset  dx="0" dy="13" in="shadowInner" result="shadowInner"></feOffset>
	<feComposite  in="shadowOffsetOuter1" in2="shadowInner" operator="out" result="shadowOffsetOuter1"></feComposite>
	<feGaussianBlur  in="shadowOffsetOuter1" result="shadowBlurOuter1" stdDeviation="7.5"></feGaussianBlur>
	<feColorMatrix  in="shadowBlurOuter1" type="matrix" values="0 0 0 0 0   0 0 0 0 0   0 0 0 0 0  0 0 0 0.144394668 0">
		</feColorMatrix>
</filter>
<filter  filterUnits="objectBoundingBox" height="165.2%" id="filter-5" width="155.0%" x="-22.8%" y="-26.3%">
	<feOffset  dx="8" dy="9" in="SourceAlpha" result="shadowOffsetOuter1"></feOffset>
	<feGaussianBlur  in="shadowOffsetOuter1" result="shadowBlurOuter1" stdDeviation="14"></feGaussianBlur>
	
		<feColorMatrix  in="shadowBlurOuter1" result="shadowMatrixOuter1" type="matrix" values="0 0 0 0 0.0755212756   0 0 0 0 0.582569014   0 0 0 0 0.878793025  0 0 0 0.229458042 0">
		</feColorMatrix>
	<feOffset  dx="0" dy="2" in="SourceAlpha" result="shadowOffsetOuter2"></feOffset>
	<feGaussianBlur  in="shadowOffsetOuter2" result="shadowBlurOuter2" stdDeviation="7.5"></feGaussianBlur>
	
		<feColorMatrix  in="shadowBlurOuter2" result="shadowMatrixOuter2" type="matrix" values="0 0 0 0 0.50398247   0 0 0 0 0.700178215   0 0 0 0 1  0 0 0 0.233828671 0">
		</feColorMatrix>
	<feMerge>
		<feMergeNode  in="shadowMatrixOuter1"></feMergeNode>
		<feMergeNode  in="shadowMatrixOuter2"></feMergeNode>
	</feMerge>
</filter>
<filter  filterUnits="objectBoundingBox" height="280.8%" id="filter-2" width="168.5%" x="-28.4%" y="-72.9%">
	<feOffset  dx="8" dy="9" in="SourceAlpha" result="shadowOffsetOuter1"></feOffset>
	<feGaussianBlur  in="shadowOffsetOuter1" result="shadowBlurOuter1" stdDeviation="14"></feGaussianBlur>
	
		<feColorMatrix  in="shadowBlurOuter1" result="shadowMatrixOuter1" type="matrix" values="0 0 0 0 0.0755212756   0 0 0 0 0.582569014   0 0 0 0 0.878793025  0 0 0 0.229458042 0">
		</feColorMatrix>
	<feOffset  dx="0" dy="2" in="SourceAlpha" result="shadowOffsetOuter2"></feOffset>
	<feGaussianBlur  in="shadowOffsetOuter2" result="shadowBlurOuter2" stdDeviation="7.5"></feGaussianBlur>
	
		<feColorMatrix  in="shadowBlurOuter2" result="shadowMatrixOuter2" type="matrix" values="0 0 0 0 0.50398247   0 0 0 0 0.700178215   0 0 0 0 1  0 0 0 0.233828671 0">
		</feColorMatrix>
	<feMerge>
		<feMergeNode  in="shadowMatrixOuter1"></feMergeNode>
		<feMergeNode  in="shadowMatrixOuter2"></feMergeNode>
	</feMerge>
</filter>
<title>Illustration</title>
<g id="_xD83D__xDCDD_-Pages-New">
	<g id="Login-" transform="translate(-113.000000, -271.000000)">
		<g id="Illustration" transform="translate(113.500000, 271.500000)">
			<g id="Shape" transform="translate(0.500000, 0.500000)">
				<g id="Group-59" transform="translate(0.000000, 0.818995)">
					<path id="Path" class="st0" d="M673.3,164.4c9.4-12.5,27.1-15.1,39.7-5.7c12.4,9.3,15,26.8,6,39.3l-0.3,0.4l-74.3,99.2
						c-9.5,12.6-27,15.8-40.3,7.4l-0.4-0.3l-46.8-30.6l-47.2,68.6c-8.8,12.8-26.1,16.1-39,7.6l-0.4-0.3c-12.8-8.8-16.1-26.1-7.6-39
						l0.3-0.4l61.8-90c9.2-13.4,27.3-17.1,41-8.4l0.4,0.3l47.6,31.2L673.3,164.4z"/>
					<path id="Path_1_" class="st0" d="M430.1,3.5c2.4-3.5,7.1-4.3,10.6-2c3.4,2.3,4.3,7,2.1,10.4l-0.1,0.1L424.1,39
						c-2.7,3.8-8,4.7-11.8,2.1l-0.1-0.1l-10.6-7.6L390,51.6c-2.2,3.5-6.8,4.6-10.4,2.5l-0.1-0.1c-3.5-2.2-4.6-6.8-2.5-10.3l0.1-0.1
						l15.3-24.2c2.5-4,7.8-5.2,11.8-2.7l0.2,0.1l0.2,0.1l10.9,7.7L430.1,3.5z"/>
					<path id="_x2B_" class="st1" d="M634.9,127v-18l0,0h18c1.4,0,2.5-1.1,2.5-2.5v-8.7c0-1.4-1.1-2.5-2.5-2.5h-18l0,0V77.2
						c0-1.4-1.1-2.5-2.5-2.5h-8.8c-1.4,0-2.5,1.1-2.5,2.5v18.1l0,0h-18c-1.4,0-2.5,1.1-2.5,2.5v8.7c0,1.4,1.1,2.5,2.5,2.5h18l0,0v18
						c0,1.4,1.1,2.5,2.5,2.5h8.8C633.8,129.5,634.9,128.4,634.9,127z"/>
					<path id="Oval" class="st2" d="M91.6,20.2c50.6,0,91.6,41,91.6,91.6s-41,91.6-91.6,91.6S0,162.3,0,111.7S41,20.2,91.6,20.2z
						 M91.6,65.5c-25.6,0-46.3,20.7-46.3,46.2S66,158,91.6,158s46.3-20.7,46.3-46.2S117.2,65.5,91.6,65.5z"/>
				</g>
			</g>
			<g id="Meeting" transform="translate(60.500000, 86.500000)">
				<g id="Group-63" transform="translate(0.596257, 0.000000)">
					<path id="Rectangle" class="st3" d="M16,0h470.1c8.8,0,16,7.2,16,16v204.2c0,8.8-7.2,16-16,16H16c-8.8,0-16-7.2-16-16V16
						C0,7.2,7.2,0,16,0z"/>
					<path id="Rectangle_1_" class="st4" d="M23.6,0h462.6c8.8,0,16,7.2,16,16v204.2c0,8.8-7.2,16-16,16H23.6c-8.8,0-16-7.2-16-16
						V16C7.6,7.2,14.7,0,23.6,0z"/>
					<path id="Rectangle_2_" class="st3" d="M25.1,7.6h459.5c5.5,0,10,4.5,10,10v201.1c0,5.5-4.5,10-10,10H25.1c-5.5,0-10-4.5-10-10
						V17.6C15.1,12,19.6,7.6,25.1,7.6z"/>
					<path id="Rectangle_3_" class="st5" d="M220.3,208.8h69.2c3.3,0,6,2.7,6,6v13.8l0,0h-81.2v-13.8
						C214.3,211.5,216.9,208.8,220.3,208.8z"/>
					<path id="Rectangle_4_" class="st6" d="M227.8,208.8H297c3.3,0,6,2.7,6,6v21.4l0,0h-81.2v-21.4
						C221.8,211.5,224.5,208.8,227.8,208.8z"/>
				</g>
				<g id="ElementCard20" transform="translate(29.855615, 17.008163)">
					<g id="Rectangle_5_">
						<g class="st7">
							<path id="path-1_2_" class="st8" d="M5.4,0h125c3,0,5.4,2.4,5.4,5.4V46c0,3-2.4,5.4-5.4,5.4H5.4C2.4,51.4,0,49,0,46V5.4
								C0,2.4,2.4,0,5.4,0z"/>
						</g>
						<g>
							<path id="path-1_1_" class="st9" d="M5.4,0h125c3,0,5.4,2.4,5.4,5.4V46c0,3-2.4,5.4-5.4,5.4H5.4C2.4,51.4,0,49,0,46V5.4
								C0,2.4,2.4,0,5.4,0z"/>
						</g>
					</g>
					<path id="Rectangle_6_" class="st10" d="M41.7,29h25.4c0.8,0,1.5,0.7,1.5,1.5s-0.7,1.5-1.5,1.5H41.7c-0.8,0-1.5-0.7-1.5-1.5
						S40.9,29,41.7,29z"/>
					<path id="Rectangle_7_" class="st6" d="M41.7,20.4H57c0.8,0,1.5,0.7,1.5,1.5s-0.7,1.5-1.5,1.5H41.7c-0.8,0-1.5-0.7-1.5-1.5
						S40.9,20.4,41.7,20.4z"/>
					<g id="Group-9" transform="translate(78.327328, 13.238773)">
						<path id="Path_2_" class="st6" d="M36.6,5c2.2-2.9,6.2-3.4,9.1-1.2c0.7,0.5,1.2,1.1,1.6,1.8c0.2,0.4,0.1,0.8-0.3,1.1
							c-0.4,0.2-0.8,0.1-1.1-0.3c-0.3-0.5-0.7-1-1.2-1.4c-2.1-1.6-5.2-1.3-6.8,0.8L37.9,6l-2.4,3.1c-3.7,4.9-10,7.1-16,5.5l-0.3-0.1
							L17.3,14c-0.1,0-0.2-0.1-0.4-0.1c-3.5-0.8-7,1.4-7.8,4.9l0,0.2l-0.4,1.8c-0.1,0.6-0.4,1.2-0.8,1.8c-1.5,2.1-4.4,2.5-6.5,1
							C1,23.2,1,22.8,1.2,22.4s0.7-0.4,1.1-0.2c1.4,1,3.3,0.7,4.4-0.7c0.2-0.3,0.4-0.7,0.5-1l0-0.2l0.4-1.8c1-4.4,5.3-7.2,9.7-6.2
							l0.2,0.1l0.2,0.1l1.9,0.5c5.3,1.5,11-0.4,14.4-4.7l0.2-0.2L36.6,5z"/>
						<path id="Path_3_" class="st11" d="M29.7,4.1c1.6-3.5,5.7-5.1,9.2-3.5c0.7,0.3,1.3,0.7,1.9,1.3c1.3,1.2,2.5,3.2,3.7,5.9
							c0.2,0.4,0,0.8-0.4,1c-0.4,0.2-0.8,0-1-0.4C42,5.9,40.9,4.1,39.7,3c-0.4-0.4-0.9-0.7-1.5-1c-2.7-1.2-5.8-0.1-7.1,2.6l-0.1,0.1
							l-0.5,1.1c-0.1,0.3-0.2,0.5-0.4,0.7c-1.8,2.9-5.7,3.8-8.6,2c-0.3-0.2-0.7-0.4-1.1-0.5c-2-0.4-3.9,0.7-4.4,2.7l0,0.1l-0.9,3.7
							c-0.3,1.1-0.8,2.2-1.6,3c-2.4,2.7-6.5,2.9-9.2,0.5l-0.1-0.1l-3.5-3.2c-0.3-0.3-0.3-0.8,0-1.1c0.3-0.3,0.7-0.3,1-0.1l0.1,0.1
							l3.5,3.2c2.1,1.9,5.3,1.8,7.2-0.3c0.6-0.6,1-1.3,1.2-2.1l0-0.2l0.9-3.7C15.2,7.7,18,6,20.8,6.6c0.5,0.1,1,0.3,1.4,0.6l0.2,0.1
							c2.2,1.4,5.1,0.7,6.5-1.5C29,5.6,29,5.5,29.1,5.4l0.1-0.2L29.7,4.1z"/>
					</g>
					<ellipse id="Oval_1_" class="st6" cx="22.6" cy="26.2" rx="10.4" ry="10.4"/>
				</g>
				<g id="ElementCard3" transform="translate(29.855615, 75.591837)">
					<g id="Rectangle_8_">
						<g class="st12">
							<path id="path-3_10_" class="st8" d="M5.8-0.3h158.9c2.8,0,5,2.2,5,5v132.7c0,2.8-2.2,5-5,5H5.8c-2.8,0-5-2.2-5-5V4.7
								C0.8,2,3-0.3,5.8-0.3z"/>
						</g>
						<g>
							<path id="path-3_2_" class="st9" d="M5.8-0.3h158.9c2.8,0,5,2.2,5,5v132.7c0,2.8-2.2,5-5,5H5.8c-2.8,0-5-2.2-5-5V4.7
								C0.8,2,3-0.3,5.8-0.3z"/>
						</g>
					</g>
					<defs>
						<filter id="Adobe_OpacityMaskFilter" filterUnits="userSpaceOnUse" x="-8.1" y="28.1" width="190" height="126">
							<feColorMatrix  type="matrix" values="1 0 0 0 0  0 1 0 0 0  0 0 1 0 0  0 0 0 1 0"/>
						</filter>
					</defs>
					<mask maskUnits="userSpaceOnUse" x="-8.1" y="28.1" width="190" height="126" id="mask-4_1_">
						<g class="st13">
							<path id="path-3_3_" class="st9" d="M5.8-0.3h158.9c2.8,0,5,2.2,5,5v132.7c0,2.8-2.2,5-5,5H5.8c-2.8,0-5-2.2-5-5V4.7
								C0.8,2,3-0.3,5.8-0.3z"/>
						</g>
					</mask>
					<g id="Path-3" class="st14">
						<g class="st15">
							<path id="path-6_2_" class="st6" d="M23.4,109.4c13.4-3.8,23-9.7,28.9-17.6C61.2,80,64.2,68.6,79.4,68.6s17.2,17.5,33.6,17.5
								s17.4-22.3,22.8-31.2c3.6-5.9,8.6-8.9,14.9-8.9"/>
						</g>
						<g>
							<path id="path-6_1_" class="st16" d="M23.4,109.4c13.4-3.8,23-9.7,28.9-17.6C61.2,80,64.2,68.6,79.4,68.6
								s17.2,17.5,33.6,17.5s17.4-22.3,22.8-31.2c3.6-5.9,8.6-8.9,14.9-8.9"/>
						</g>
					</g>
					<defs>
						<filter id="Adobe_OpacityMaskFilter_1_" filterUnits="userSpaceOnUse" x="23.4" y="45.1" width="127.4" height="77.5">
							<feColorMatrix  type="matrix" values="1 0 0 0 0  0 1 0 0 0  0 0 1 0 0  0 0 0 1 0"/>
						</filter>
					</defs>
					<mask maskUnits="userSpaceOnUse" x="23.4" y="45.1" width="127.4" height="77.5" id="mask-4_2_">
						<g class="st17">
							<path id="path-3_4_" class="st9" d="M5.8-0.3h158.9c2.8,0,5,2.2,5,5v132.7c0,2.8-2.2,5-5,5H5.8c-2.8,0-5-2.2-5-5V4.7
								C0.8,2,3-0.3,5.8-0.3z"/>
						</g>
					</mask>
					<path id="Path-3_1_" class="st18" d="M23.4,108.1c13.4-3.8,23-9.7,28.9-17.5c8.9-11.7,11.8-23.1,27.1-23.1S96.6,85,113.1,85
						s17.4-22.2,22.8-31c3.6-5.9,8.6-8.8,14.9-8.8v74.4c0,1.7-1.4,3.1-3.1,3.1H26.5c-1.7,0-3.1-1.4-3.1-3.1V108.1L23.4,108.1z"/>
					<defs>
						<filter id="Adobe_OpacityMaskFilter_2_" filterUnits="userSpaceOnUse" x="14" y="13.9" width="52.9" height="5.7">
							<feColorMatrix  type="matrix" values="1 0 0 0 0  0 1 0 0 0  0 0 1 0 0  0 0 0 1 0"/>
						</filter>
					</defs>
					<mask maskUnits="userSpaceOnUse" x="14" y="13.9" width="52.9" height="5.7" id="mask-4_3_">
						<g class="st19">
							<path id="path-3_5_" class="st9" d="M5.8-0.3h158.9c2.8,0,5,2.2,5,5v132.7c0,2.8-2.2,5-5,5H5.8c-2.8,0-5-2.2-5-5V4.7
								C0.8,2,3-0.3,5.8-0.3z"/>
						</g>
					</mask>
					<rect id="Rectangle_9_" x="14" y="13.9" class="st20" width="52.9" height="5.7"/>
					<defs>
						<filter id="Adobe_OpacityMaskFilter_3_" filterUnits="userSpaceOnUse" x="14" y="28.1" width="24.5" height="5.7">
							<feColorMatrix  type="matrix" values="1 0 0 0 0  0 1 0 0 0  0 0 1 0 0  0 0 0 1 0"/>
						</filter>
					</defs>
					<mask maskUnits="userSpaceOnUse" x="14" y="28.1" width="24.5" height="5.7" id="mask-4_4_">
						<g class="st21">
							<path id="path-3_6_" class="st9" d="M5.8-0.3h158.9c2.8,0,5,2.2,5,5v132.7c0,2.8-2.2,5-5,5H5.8c-2.8,0-5-2.2-5-5V4.7
								C0.8,2,3-0.3,5.8-0.3z"/>
						</g>
					</mask>
					<path id="Rectangle_10_" class="st22" d="M16.8,28.1h18.9c1.6,0,2.8,1.3,2.8,2.8c0,1.6-1.3,2.8-2.8,2.8H16.8
						c-1.6,0-2.8-1.3-2.8-2.8C14,29.4,15.2,28.1,16.8,28.1z"/>
					<defs>
						<filter id="Adobe_OpacityMaskFilter_4_" filterUnits="userSpaceOnUse" x="133.8" y="13.9" width="6.6" height="6.6">
							<feColorMatrix  type="matrix" values="1 0 0 0 0  0 1 0 0 0  0 0 1 0 0  0 0 0 1 0"/>
						</filter>
					</defs>
					<mask maskUnits="userSpaceOnUse" x="133.8" y="13.9" width="6.6" height="6.6" id="mask-4_5_">
						<g class="st23">
							<path id="path-3_7_" class="st9" d="M5.8-0.3h158.9c2.8,0,5,2.2,5,5v132.7c0,2.8-2.2,5-5,5H5.8c-2.8,0-5-2.2-5-5V4.7
								C0.8,2,3-0.3,5.8-0.3z"/>
						</g>
					</mask>
					<path id="Oval_2_" class="st24" d="M137.2,20.5c1.8,0,3.3-1.5,3.3-3.3s-1.5-3.3-3.3-3.3c-1.8,0-3.3,1.5-3.3,3.3
						S135.3,20.5,137.2,20.5z"/>
					<defs>
						<filter id="Adobe_OpacityMaskFilter_5_" filterUnits="userSpaceOnUse" x="143.3" y="13.9" width="6.6" height="6.6">
							<feColorMatrix  type="matrix" values="1 0 0 0 0  0 1 0 0 0  0 0 1 0 0  0 0 0 1 0"/>
						</filter>
					</defs>
					<mask maskUnits="userSpaceOnUse" x="143.3" y="13.9" width="6.6" height="6.6" id="mask-4_6_">
						<g class="st25">
							<path id="path-3_8_" class="st9" d="M5.8-0.3h158.9c2.8,0,5,2.2,5,5v132.7c0,2.8-2.2,5-5,5H5.8c-2.8,0-5-2.2-5-5V4.7
								C0.8,2,3-0.3,5.8-0.3z"/>
						</g>
					</mask>
					<path id="Oval_3_" class="st26" d="M146.6,20.5c1.8,0,3.3-1.5,3.3-3.3s-1.5-3.3-3.3-3.3c-1.8,0-3.3,1.5-3.3,3.3
						S144.8,20.5,146.6,20.5z"/>
					<defs>
						<filter id="Adobe_OpacityMaskFilter_6_" filterUnits="userSpaceOnUse" x="152.7" y="13.9" width="6.6" height="6.6">
							<feColorMatrix  type="matrix" values="1 0 0 0 0  0 1 0 0 0  0 0 1 0 0  0 0 0 1 0"/>
						</filter>
					</defs>
					<mask maskUnits="userSpaceOnUse" x="152.7" y="13.9" width="6.6" height="6.6" id="mask-4_7_">
						<g class="st27">
							<path id="path-3_9_" class="st9" d="M5.8-0.3h158.9c2.8,0,5,2.2,5,5v132.7c0,2.8-2.2,5-5,5H5.8c-2.8,0-5-2.2-5-5V4.7
								C0.8,2,3-0.3,5.8-0.3z"/>
						</g>
					</mask>
					<path id="Oval_4_" class="st28" d="M156,20.5c1.8,0,3.3-1.5,3.3-3.3s-1.5-3.3-3.3-3.3s-3.3,1.5-3.3,3.3S154.2,20.5,156,20.5z"
						/>
				</g>
				<g id="ElementCard11" transform="translate(225.232620, 30.236735)">
					<g id="Rectangle_11_">
						<g class="st29">
							<path id="path-8_2_" class="st8" d="M7.5,0h225.2c4.1,0,7.5,3.4,7.5,7.5V158c0,4.1-3.4,7.5-7.5,7.5H7.5
								c-4.1,0-7.5-3.4-7.5-7.5V7.5C0,3.4,3.4,0,7.5,0z"/>
						</g>
						<g>
							<path id="path-8_1_" class="st9" d="M7.5,0h225.2c4.1,0,7.5,3.4,7.5,7.5V158c0,4.1-3.4,7.5-7.5,7.5H7.5
								c-4.1,0-7.5-3.4-7.5-7.5V7.5C0,3.4,3.4,0,7.5,0z"/>
						</g>
					</g>
					<g id="Group-26" transform="translate(31.788688, 84.863931)">
						<polygon id="Path_4_" class="st3" points="8.8,0 8.8,59.2 0,59.2 0,0 						"/>
						<polygon id="Path_5_" class="st11" points="8.8,14.1 8.8,59.2 0,59.2 0,14.1 						"/>
						<polygon id="Path_6_" class="st6" points="8.8,42.4 8.8,59.2 0,59.2 0,42.4 						"/>
					</g>
					<g id="Group-26_1_" transform="translate(52.981147, 70.719943)">
						<polygon id="Path_7_" class="st3" points="8.8,0 8.8,73.3 0,73.3 0,0 						"/>
						<polygon id="Path_8_" class="st11" points="8.8,21.2 8.8,73.3 0,73.3 0,21.2 						"/>
						<polygon id="Path_9_" class="st6" points="8.8,56.6 8.8,73.3 0,73.3 0,56.6 						"/>
					</g>
					<g id="Group-26_2_" transform="translate(74.173606, 81.327934)">
						<polygon id="Path_10_" class="st3" points="8.8,0 8.8,62.7 0,62.7 0,0 						"/>
						<polygon id="Path_11_" class="st11" points="8.8,21.2 8.8,62.7 0,62.7 0,21.2 						"/>
						<polygon id="Path_12_" class="st6" points="8.8,49.5 8.8,62.7 0,62.7 0,49.5 						"/>
					</g>
					<g id="Group-26_3_" transform="translate(95.366065, 63.647949)">
						<polygon id="Path_13_" class="st3" points="8.8,0 8.8,80.4 0,80.4 0,0 						"/>
						<polygon id="Path_14_" class="st11" points="8.8,21.2 8.8,80.4 0,80.4 0,21.2 						"/>
						<polygon id="Path_15_" class="st6" points="8.8,49.5 8.8,80.4 0,80.4 0,49.5 						"/>
					</g>
					<g id="Group-26_4_" transform="translate(116.558524, 49.503960)">
						<polygon id="Path_16_" class="st3" points="8.8,0 8.8,94.5 0,94.5 0,0 						"/>
						<polygon id="Path_17_" class="st11" points="8.8,28.3 8.8,94.5 0,94.5 0,28.3 						"/>
						<polygon id="Path_18_" class="st6" points="8.8,70.7 8.8,94.5 0,94.5 0,70.7 						"/>
					</g>
					<g id="Group-26_5_" transform="translate(137.750982, 70.719943)">
						<polygon id="Path_19_" class="st3" points="8.8,0 8.8,73.3 0,73.3 0,0 						"/>
						<polygon id="Path_20_" class="st11" points="8.8,21.2 8.8,73.3 0,73.3 0,21.2 						"/>
						<polygon id="Path_21_" class="st6" points="8.8,53.7 8.8,73.3 0,73.3 0,53.7 						"/>
					</g>
					<g id="Group-26_6_" transform="translate(158.943441, 77.791937)">
						<polygon id="Path_22_" class="st3" points="8.8,0 8.8,66.3 0,66.3 0,0 						"/>
						<polygon id="Path_23_" class="st11" points="8.8,14.1 8.8,66.3 0,66.3 0,14.1 						"/>
						<polygon id="Path_24_" class="st6" points="8.8,41.7 8.8,66.3 0,66.3 0,41.7 						"/>
					</g>
					<g id="Group-26_7_" transform="translate(180.135900, 63.647949)">
						<polygon id="Path_25_" class="st3" points="8.8,0 8.8,80.4 0,80.4 0,0 						"/>
						<polygon id="Path_26_" class="st11" points="8.8,28.3 8.8,80.4 0,80.4 0,28.3 						"/>
						<polygon id="Path_27_" class="st6" points="8.8,62.9 8.8,80.4 0,80.4 0,62.9 						"/>
					</g>
					<g id="Group-26_8_" transform="translate(201.328359, 77.791937)">
						<polygon id="Path_28_" class="st3" points="8.8,0 8.8,66.3 0,66.3 0,0 						"/>
						<polygon id="Path_29_" class="st11" points="8.8,14.1 8.8,66.3 0,66.3 0,14.1 						"/>
						<polygon id="Path_30_" class="st6" points="8.8,48.8 8.8,66.3 0,66.3 0,48.8 						"/>
					</g>
					<path id="Rectangle_12_" class="st30" d="M31.1,28.3h70.6c1.2,0,2.1,0.9,2.1,2.1c0,1.2-0.9,2.1-2.1,2.1H31.1
						c-1.2,0-2.1-0.9-2.1-2.1C29,29.2,29.9,28.3,31.1,28.3z"/>
					<rect id="Rectangle_13_" x="29" y="16.3" class="st6" width="39.6" height="4.2"/>
				</g>
				<g id="Chair4" transform="translate(411.171123, 275.910204)">
					<polygon id="Path_31_" class="st11" points="86.9,89 98.3,179.4 92.3,179.3 80.9,89.8 					"/>
					<path id="Path_32_" class="st6" d="M0,93.7c0-5.2,4.2-9.4,9.4-9.4h37.8c5.7,0,10.5-4.4,11-10l6-64.2c0.5-5.7,5.3-10,11-10H99
						c6.1,0,11.1,5,11.1,11.1c0,0.3,0,0.6,0,0.8l-6.2,81c-0.4,5.8-5.3,10.2-11.1,10.2H9.4C4.2,103.2,0,99,0,93.7z"/>
					<path id="Combined-Shape" class="st11" d="M98.8,0c0.6,0,1.1,0,1.7,0.1c0.1,0.6,0.1,1.1,0.1,1.7c0,0.3,0,0.6,0,0.9l-6.2,80.7
						c-0.4,5.8-5.3,10.2-11.1,10.2H0.2l-0.2,0c0-0.1,0-0.1,0-0.2c0-5.2,4.2-9.4,9.4-9.4h37.6c5.7,0,10.5-4.4,11-10l6-64
						c0.5-5.7,5.3-10,11-10H98.8z"/>
				</g>
				
					<g id="Wom1.4" transform="translate(456.000000, 330.500000) scale(-1, 1) translate(-456.000000, -330.500000) translate(384.000000, 203.000000)">
					<g id="Head" transform="translate(32.719433, 0.465078)">
						<path id="Path_33_" class="st31" d="M10,56.9C-2.2,54-3,37.3,6.3,31.5C-3.3,11.4,18.8-8.5,34,3.8c9.9-4.3,18.2,12.3,8.9,25.2
							c3.9,22.1-4,27.9-18.2,28.1L10,56.9z"/>
						
							<linearGradient id="Path_155_" gradientUnits="userSpaceOnUse" x1="1205.2896" y1="962.2239" x2="1205.4583" y2="960.7266" gradientTransform="matrix(-26.7565 0 0 -33.6336 32269.8965 32382.2402)">
							<stop  offset="0" style="stop-color:#FFAFAF"/>
							<stop  offset="1" style="stop-color:#F07777"/>
						</linearGradient>
						<path id="Path_34_" class="st32" d="M10.2,52.9c0,0,5.9-1.4,6.1-11.1s0.1-13,0.1-13l13.1-0.2c0,0,0.1,10.8,0.1,14.8
							c0,10.5,7.3,9.6,7.3,9.6s-1.5,8.5-13.4,9.2C14.3,62.6,10.2,52.9,10.2,52.9z"/>
						
							<linearGradient id="Path_175_" gradientUnits="userSpaceOnUse" x1="1201.6805" y1="959.3113" x2="1201.9148" y2="958.342" gradientTransform="matrix(-31.578 0 0 -29.8624 37969.4063 28659.1426)">
							<stop  offset="0" style="stop-color:#FDC6C6"/>
							<stop  offset="1" style="stop-color:#FAB2B2"/>
						</linearGradient>
						<path id="Path_35_" class="st33" d="M13.3,23.8c-5.8-0.2-4.9,8.3,1.2,8.3c0,0,3.5,12.1,15.7,12.1c9.9,0,10.6-14.1,10.7-17
							c0.1-3,0.1-12.9,0.1-12.9l-27.9,0L13.3,23.8z"/>
						<path id="Path_36_" class="st34" d="M27.9,36.1c0,0,2.9,2.5,6.3,0.2"/>
						<path id="Path_37_" class="st35" d="M29.8,39c0.9,0.4,1.8,0.4,2.6,0"/>
						<path id="Path-8" class="st36" d="M13.9,28.4c0.1-1.4-0.4-2.5-1.8-2.7"/>
						<path id="Path_38_" class="st31" d="M12.4,22.8c0,0,3.2,4.3,3.8,4.3c0.6,0,0.9-5.6,0.9-5.6c3.9-0.3,13.8-2.3,16.3-6.9
							c1.7,4.1,5,5.9,7.1,5.5l0.4,8.6l1-17.4H11.6L12.4,22.8z"/>
					</g>
					<g id="LLeg" transform="translate(36.894034, 131.693412)">
						
							<linearGradient id="Path_176_" gradientUnits="userSpaceOnUse" x1="1198.5289" y1="823.2383" x2="1198.6058" y2="822.4169" gradientTransform="matrix(-30.0535 0 0 -24.9439 36082.5391 20625.5488)">
							<stop  offset="0" style="stop-color:#FDC6C6"/>
							<stop  offset="1" style="stop-color:#FAB2B2"/>
						</linearGradient>
						<path id="Path_39_" class="st37" d="M65.7,93.2c0,0-5.2,10.6-0.9,13.9c4.3,3.3,15.6,9.6,15.6,9.6l-30.1-1.9L57,91.7L65.7,93.2
							z"/>
						<path id="Path_40_" class="st38" d="M53.3,103.3c1.5,0.2-0.1,5.2,3.1,5.5c3.2,0.4,4.8-4.4,8.4-2.9c3.6,1.5,16.9,9.3,17.4,12.4
							c0.5,3.2-4.4,4.1-11.2,3.4s-8-3.1-13.1-2.2c-5.1,1-8.9-0.6-8.7-4.3C49.3,111.6,51.8,103.1,53.3,103.3z"/>
						<path id="Path-14" class="st39" d="M66.4,106.7l-0.7,1c-0.3,0.5-0.2,1.1,0.3,1.4c0,0,0,0,0.1,0l9,5c0.3,0.2,0.6,0.2,0.9,0
							l1.4-0.7l0,0c-2.2-1.6-4-2.8-5.9-3.9C69.9,108.6,68.3,107.7,66.4,106.7z"/>
						
							<linearGradient id="Path_177_" gradientUnits="userSpaceOnUse" x1="1184.1606" y1="844.1265" x2="1184.6462" y2="845.0209" gradientTransform="matrix(-101.1619 0 0 -99.7798 119806.2734 84316.9609)">
							<stop  offset="0" style="stop-color:#28324F"/>
							<stop  offset="1" style="stop-color:#222735"/>
						</linearGradient>
						<path id="Path_41_" class="st40" d="M20.4,0c9.1,0.4,59.7,11.6,68.9,13.5s17,12.2,10,24.1c-7.9,13.4-28.2,51.4-33.1,60
							c-2.4,4.2-14.8,1.9-11.9-5.3c5.4-13.3,7.9-46.6,21.7-58.8c0,0-46.3,8.1-66.3-1.2C-4.8,25.7-1.5-1,20.4,0z"/>
					</g>
					<g id="LArm" transform="translate(64.335218, 56.189189)">
						
							<linearGradient id="Path_178_" gradientUnits="userSpaceOnUse" x1="1180.6171" y1="897.874" x2="1180.6735" y2="896.6816" gradientTransform="matrix(-20.5809 0 0 -24.0241 24365.1563 21566.3672)">
							<stop  offset="0" style="stop-color:#FDC6C6"/>
							<stop  offset="1" style="stop-color:#FAB2B2"/>
						</linearGradient>
						<path id="Path_42_" class="st41" d="M57.5,21.7c0,0-0.1-7.4,2.5-11.3c2.6-3.9,2.7-8,4.7-7.8c2,0.1,0,9.7,0,9.7s2.5-1,4.3-2.2
							S76.1,3,77.4,4c2.1,1.8-1.3,11.9-3.2,13.9C72.3,20,62,26.6,62,26.6L57.5,21.7z"/>
						<path id="Path_43_" class="st42" d="M1.5,17.3c4.2,9.8,12,27.9,15.2,33.2c4,6.7,10.3,9.7,17.7,4.7
							c7.8-5.3,29.2-25.8,29.8-30.4c0.6-4.6-4.6-10.2-9.4-7.3S30.4,36.8,30.4,36.8S22.5,16.4,16.1,4.6C10.6-5.6-4.9,2.3,1.5,17.3z"
							/>
						<path id="Path_44_" class="st43" d="M30.5,36.8c1.4,4.8,2.3,7.1,2.6,6.8c0.3-0.3,0.2-3.2-0.4-8.7L30.5,36.8z"/>
					</g>
					<g id="Body" transform="translate(23.579496, 51.612781)">
						<path id="Path_45_" class="st42" d="M0,10c0,0,10.2,34.2,10.5,40.6c0.3,6.5-8.3,25.5-6.9,30.3C7,92,50.3,96.8,52,81.9
							c0.8-7-0.8-13.2,1-21.4c1.8-8.2,9.3-20.4,5.1-31.9S55,6.5,52,4.5s-10-4.1-10-4.1c-3.4,5-15,5-20.5-0.4C21.5,0,7.8,2.7,0,10z"
							/>
						<path id="Path_46_" class="st44" d="M9.1,15.5c6.8,10.8,6.8,29.6,10.4,32.1c3.7,2.5,17.9,0,17.9,2S17.8,69.4,21,77.9
							c1.7,4.5,1.2,8.5-1.4,12l-0.9-0.2c-7.7-1.7-14-4.9-15.2-8.8c-1.5-4.8,8.2-23.8,7.9-30.3c-0.3-5.5-8.4-30.9-10.8-38.5
							C2.7,8.6,5.5,9.8,9.1,15.5z"/>
					</g>
					<g id="RArm" transform="translate(0.000000, 58.763197)">
						
							<linearGradient id="Path_179_" gradientUnits="userSpaceOnUse" x1="1235.9882" y1="877.9614" x2="1236.0649" y2="877.6268" gradientTransform="matrix(-29.1563 0 0 -15.444 36095.1602 13590.8574)">
							<stop  offset="0" style="stop-color:#FDC6C6"/>
							<stop  offset="1" style="stop-color:#FAB2B2"/>
						</linearGradient>
						<path id="Path_47_" class="st45" d="M44.3,37c0,0,8.6-7.6,11.2-8.5c2.6-0.9,18-1.9,17.9,0.1c-0.1,2.1-8.4,2-9.2,3.1
							c-0.9,1.1-1.1,8.2-4.3,9C56.7,41.5,47,42.9,47,42.9L44.3,37z"/>
						<path id="Path_48_" class="st42" d="M21.5,4.8C12.4,17.6,4.7,37.1,1.7,44.7s0,19,13.1,16.8c13-2.2,33.7-14.4,36-18
							c2.3-3.6-1.2-10-5.6-9.2C41.2,35.1,21,43.7,21,43.7s13-23,16.1-29.2C42.4,4.2,29.4-6.4,21.5,4.8z"/>
						<path id="Path_49_" class="st43" d="M21.2,43.5c-4.5,2.3-6.5,2.9-6,2c0.6-0.9,3.4-3.1,8.6-6.4L21.2,43.5z"/>
					</g>
				</g>
				<g id="Men3.2" transform="translate(108.000000, 113.000000)">
					<g id="LLeg_1_" transform="translate(43.000000, 123.000000)">
						<path id="Path_50_" class="st46" d="M23.1,188.2c0,0-0.1,8.7,5.2,11.8c5.3,3.1,13.6,8.8,13.6,8.8l-31.5,1.1l0.9-21.8
							L23.1,188.2z"/>
						<path id="Path_51_" class="st47" d="M9.3,197.8l-0.5,14.1h7.3l0.5-1.8c0,0,2.8-0.1,4.3,0.7c1.7,0.8,1.9,1.2,1.9,1.2l23.2,0
							c0,0,1.1-4.6-5.9-7.9c-7.1-3.3-12.2-8-13.2-8.5c-1-0.5-3-0.8-4.4,0.4c-1.4,1.1-2.5,4.1-5.7,4.2
							C12.8,200.4,10.4,195.4,9.3,197.8z"/>
						<line id="Path-38" class="st48" x1="29.1" y1="197.2" x2="26.7" y2="199.6"/>
						<line id="Path-38_1_" class="st48" x1="32.6" y1="199" x2="30.2" y2="201.3"/>
						<line id="Path-38_2_" class="st48" x1="36.1" y1="200.8" x2="33.7" y2="203.1"/>
						<path id="Path_52_" class="st49" d="M0,0c0,0,8.8,96.4,9,103.1c0.3,6.7-2.8,18.3-2.8,30.8c0,8.4,0.4,27.3,1.1,56.7l19.3,0.4
							c5.4-53.2,8.1-83.8,8.2-91.8c0.1-12,0.8-98,0.8-98L0,0z"/>
						<path id="Path_53_" class="st50" d="M13.9,106.1l0,0.2c0.3,4.1-2.2,17.5-7.6,40.3l-0.1-12.8l0,0c-0.1-12.3,2.9-23.7,2.8-30.4
							l0-0.4c-0.1-2.3-1.1-14.7-2.5-30.2l0.6,2.3C10.9,88.6,13.1,98.9,13.9,106.1z"/>
					</g>
					<g id="RLeg" transform="translate(12.000000, 123.000000)">
						<polygon id="Path_54_" class="st46" points="7.5,187 3.8,209.5 17.5,209.5 17.9,186.6 						"/>
						<path id="Path_55_" class="st47" d="M3.6,199.6l-0.1,3.4l0,0c-1.4,1.5-2.4,4.6-3,9.1c0,3.2,21.2,3.1,22.2,0
							c-0.7-5-1.9-8.1-3.5-9.3l0-3.3c0-1.4-0.9-2.5-2.2-2.9l-2.1-0.6l0,0c-2-2.9-4.7-2.8-7.1,0.4L6,196.7
							C4.7,197,3.7,198.2,3.6,199.6z"/>
						<line id="Path-39" class="st48" x1="8.7" y1="198.7" x2="14.2" y2="198.7"/>
						<line id="Path-39_1_" class="st48" x1="8.7" y1="201.4" x2="14.2" y2="201.4"/>
						<line id="Path-39_2_" class="st48" x1="9.6" y1="204" x2="13.4" y2="204"/>
						<path id="Path_56_" class="st51" d="M14.4,1.3c0,0-6.1,66.1-6.1,78.7c0.1,12.7,1.9,18.2-0.7,27.3c-1.7,6.1-3.3,33.2-4.8,81.5
							l19,2.1c8.1-51.7,12.6-81.1,13.5-88.3C36.7,91.9,53,0.4,53,0.4L14.4,1.3z"/>
						<path id="Path_57_" class="st50" d="M19.5,46.1l-1.2,4.2c-3.4,12.4-6.5,25.5-5.7,44.2l0,0.9c0.2,4-2.4,27.6-7.7,70.5l-0.5,3
							c-0.5,3.1-1,5.7-1.4,7.9l0.1-3.8c0.7-21,2.5-58.7,4.5-65.6c2.6-9.1,0.8-14.6,0.7-27.3c-0.1-8.9,2.9-43.9,4.7-64.1l1.3-14.6
							l8-0.2l0,2.3C22.6,24.1,21.6,38.4,19.5,46.1L19.5,46.1z"/>
					</g>
					<g id="LArm_1_" transform="translate(62.000000, 17.000000)">
						<g id="Group-6" transform="translate(56.695443, 0.000000)">
							<path id="Path_58_" class="st46" d="M1.1,25.6c0,0-1.6-8.7-1-10.5c0.5-1.5,5.1-3.7,5.1-3.7s8-12.5,9.8-11.2
								c1.4,1-4.2,10.3-4.2,10.3s5.1,5.3,5,7.7c-0.1,2.4-8.3,9.8-8.3,9.8L1.1,25.6z"/>
							<path id="Path_59_" class="st52" d="M5.4,11.2c0,0,3.5-0.5,4.1,0.6C10,12.7,7,15.4,7,16.1c0,0.7,0,6.4,0.3,6.4
								s3.6-9.2,2.8-11.1C9.6,9.8,5.4,11.2,5.4,11.2z"/>
						</g>
						<path id="Path_60_" class="st53" d="M15.5,36.7c-9.3-8-23.2,6.4-7.7,19.9c5.9,5.1,24.6,17.9,29.1,20.7
							c7.3,4.5,13.2,0.4,15.7-6.6c2.1-6,14.5-38,13-42.7c-1-3.1-6.6-6-9.4-3.6c-4.1,3.5-16.5,34.4-16.5,34.4S26.1,45.8,15.5,36.7z"
							/>
						<path id="Path_61_" class="st54" d="M39.8,58.8c2.7,3.3,4.2,4.7,4.4,4.2c0.2-0.5-0.9-2.9-3.2-7.1L39.8,58.8z"/>
						<path id="Path-41" class="st55" d="M55.2,26.4c3.2-1.5,6.8,0.4,8.7,3.3"/>
					</g>
					<g id="Head_1_" transform="translate(37.000000, 0.000000)">
						<path id="Path_62_" class="st56" d="M0.7,44.4c0,0,5.3-1.2,5.5-9.8c0.2-8.6,0.1-11.5,0.1-11.5L19,22.9c0,0,0.1,9.6,0.1,13
							c0,7.5,5.7,9.6,5.7,9.6s-0.5,8.2-11.1,8.8C5.4,54.8,0.7,44.4,0.7,44.4z"/>
						<g id="Head1" transform="translate(0.526168, 0.000000)">
							
								<linearGradient id="Path_180_" gradientUnits="userSpaceOnUse" x1="-692.4477" y1="1004.9852" x2="-692.8309" y2="1004.5183" gradientTransform="matrix(4.4853 0 0 -10.5531 3137.5654 10619.4893)">
								<stop  offset="0" style="stop-color:#4D63A0"/>
								<stop  offset="1" style="stop-color:#222735"/>
							</linearGradient>
							<path id="Path_63_" class="st57" d="M29.7,13.9L29.4,22c2.4-2.8,4-6.2,4.5-10.6L29.7,13.9z"/>
							<path id="Path_64_" class="st46" d="M4.6,18.8c-5.2-0.2-4.4,7.3,1.1,7.3c0,0,5.9,11.5,15.1,11.6c4.4,0,5.9-3.9,7.2-6.6
								s2.3-6.8,2.4-9.3c0.1-2.7,0.1-11.4,0.1-11.4l-26,0L4.6,18.8z"/>
							<path id="Path_65_" class="st58" d="M30.4,14.5H12.1c-0.2,3.2-1.3,5.9-4.1,7.9c0.1,4.7,1.7,8.2,4.5,10.6
								c2.4-6.9,17.4-5,16.3-0.5c-2.3,9.4-23.7,9.6-22.4-12c-0.9-1.1-3.9-1.4-4.9-0.2c-1.7-4.7-1-11.4,4-12.4
								C1.6-2.2,54.7-4.4,30.4,14.5z"/>
							<path id="Path_66_" class="st59" d="M18.7,32.1c0,0,2.4,1.7,5.5-0.2"/>
							<path id="Path-8_1_" class="st60" d="M5.4,23.1c0.1-1.2-0.3-2.2-1.6-2.4"/>
						</g>
					</g>
					<g id="Body_1_" transform="translate(19.000000, 43.000000)">
						<path id="Path_67_" class="st53" d="M21.1,0l15.1,9.8L43,1.9c0,0,14.3,4.4,17,9.6c3.8,7.5-1.2,67.5,1,71.1
							c4.7,7.7-1.5,13-22.2,15S-0.3,98,3,87.7C6.4,77.4-6.5,10.1,4.9,6.4C8.4,5.3,21.1,0,21.1,0z"/>
						<path id="Path_68_" class="st54" d="M10.9,18.5c0.9,1.6,0.4,7.2-1.4,16.8c-1.6,8.2,0.2,16.6,5,23.4l0.3,0.4
							c1.6,2.2,3.1,5.2,4.5,8.8c3.3,8.9-4.4,16.4,1.5,30.4l-0.7,0C8.5,97.6,0.8,94.6,3,87.7c2.7-8.4-5.4-55.1-2.2-73.7
							C6.4,15,9.8,16.6,10.9,18.5z"/>
						<path id="Path_69_" class="st61" d="M21.1,0l13.5,8.8c-2,2.3-3,5-3.4,7.9C26,12.7,20.6,7,18.9,0.9L21.1,0z"/>
						<path id="Path_70_" class="st61" d="M37.3,8.6c2.3,1.5,4.1,4.3,5.6,7.4c1.8-3.6,2.5-8.3,2.5-13.3l-2.2-0.9L37.3,8.6z"/>
						<path id="Path_71_" class="st62" d="M34.6,8.8l0.2,0.1c0.8,0.5,1.8,0.3,2.5-0.3l0,0l0,0c5.1,18.6,8.7,39.2,9.8,60l-5.3,8.8
							l-6.2-8.2C36.3,47.5,36.3,26.3,34.6,8.8z"/>
					</g>
					<g id="RArm_1_" transform="translate(0.000000, 50.000000)">
						
							<g id="Example-Book-Back" transform="translate(80.380968, 61.179493) rotate(6.000000) translate(-80.380968, -61.179493) translate(65.880968, 47.179493)">
							<g id="Group-3" transform="translate(-0.000000, -0.000000)">
								<path id="Rectangle_14_" class="st63" d="M2.6,0.8L15,1.3c1.3,0.1,2.4,1.1,2.4,2.5l0,21.1c0,1.4-1.1,2.5-2.5,2.5
									c0,0-0.1,0-0.1,0L2.4,26.9C1,26.8,0,25.7,0,24.4L0,3.3C0,1.9,1.1,0.8,2.6,0.8C2.5,0.8,2.5,0.8,2.6,0.8z"/>
								<path id="Rectangle_15_" class="st64" d="M4.1,0.2l13.1,1.2l0,0l8.7-1.1c1.4-0.2,2.6,0.8,2.7,2.1c0,0.1,0,0.2,0,0.3l0,21.1
									c0,1.2-0.9,2.3-2.2,2.4l-9.3,1.1l0,0L3.7,26.3c-1.3-0.1-2.2-1.2-2.2-2.5l0-21.1c0-1.4,1.1-2.5,2.5-2.5C4,0.2,4,0.2,4.1,0.2z
									"/>
								<path id="Rectangle_16_" class="st65" d="M6,5.7l6,0.5c0.8,0.1,1.5,0.8,1.5,1.6l0,2.4c0,0.9-0.7,1.6-1.6,1.6
									c0,0-0.1,0-0.1,0l-6-0.5c-0.8-0.1-1.5-0.8-1.5-1.6l0-2.4c0-0.9,0.7-1.6,1.6-1.6C5.9,5.7,5.9,5.7,6,5.7z"/>
								<path id="Rectangle_17_" class="st66" d="M17.1,1.4l0.5,0c0.4,0,0.8,0.4,0.8,0.8l0,24.4c0,0.4-0.4,0.8-0.8,0.8h-0.5
									c-0.4,0-0.8-0.4-0.8-0.8l0-24.4C16.3,1.8,16.6,1.4,17.1,1.4z"/>
								<path id="Rectangle_18_" class="st67" d="M17.8,1.4l0.5,0c0.4,0,0.8,0.4,0.8,0.8l0,24.4c0,0.4-0.4,0.8-0.8,0.8h-0.5
									c-0.4,0-0.8-0.4-0.8-0.8l0-24.4C17,1.8,17.3,1.4,17.8,1.4z"/>
							</g>
						</g>
						<path id="Path_72_" class="st46" d="M53.9,58.4c0,0,4.6-0.9,6.5-2.4c1.9-1.5,7.6-2.5,7.6-2.5l-1.8,3.8c0,0,13.9-1.3,14.3,0.1
							c0.3,1.4-3.7,2.9-3.7,2.9s-2,3.7-3.9,5.8c-1.8,2-10.9,1.8-14,0.5C56,65.5,53,66.1,53,66.1L53.9,58.4z"/>
						<path id="Path_73_" class="st53" d="M17,5.2c5-10.7,22-3.5,17.7,8c-4.2,11.1-14.3,37-14.3,37s32,4,34.5,5.9
							c3.3,2.5,1.3,9.7-1.6,10.9c-2.4,1.1-20.2,1.7-37.5,0.3C7.3,66.8,0.9,63.1,0,53.6C-0.6,46.9,12.2,15.5,17,5.2z"/>
						<path id="Path_74_" class="st54" d="M20.5,50.2c-1.8,3.3-2.4,5.1-1.9,5.1c0.5,0.1,2-1.5,4.6-4.8L20.5,50.2z"/>
						<path id="Path-40" class="st55" d="M52.7,55.6c1,3.1,0.3,6.8-1.1,9.4"/>
					</g>
				</g>
				<g id="Vase2" transform="translate(25.000000, 297.161224)">
					<g id="Group-39" transform="translate(0.000000, 0.838776)">
						<path id="Rectangle_19_" class="st6" d="M0.4,60.3c8.2-3.7,17.9,0,21.6,8.2c0,0,0,0.1,0,0.1l2.9,6.5l0,0
							c-8.2,3.7-17.9,0-21.6-8.2c0,0,0-0.1,0-0.1L0.4,60.3L0.4,60.3z"/>
						<path id="Path_75_" class="st11" d="M12.2,64.3c8.2,5.9,13.6,12.4,16.1,19.6c2.5,7.2,3.5,19.4,3,36.4c0,0.3,0.2,0.5,0.5,0.5
							c0.3,0,0.5-0.2,0.5-0.5c0.5-17.1-0.6-29.4-3.1-36.8c-2.5-7.4-8-14.1-16.4-20.1c-0.2-0.2-0.5-0.1-0.7,0.1S12,64.1,12.2,64.3z"
							/>
						<path id="Rectangle_20_" class="st6" d="M70.5,56.3c-8.1-3.8-17.7-0.3-21.6,7.8c0,0,0,0.1,0,0.1l-3.2,7l0,0
							c8.1,3.8,17.7,0.3,21.6-7.8c0,0,0-0.1,0-0.1L70.5,56.3L70.5,56.3z"/>
						
							<g id="Group-88" transform="translate(20.755961, 71.269687) rotate(-12.000000) translate(-20.755961, -71.269687) translate(11.755961, 37.269687)">
							<path id="Rectangle_21_" class="st6" d="M0.5,0.6c8,0,14.5,6.5,14.5,14.5l0,6.5l0,0c-8,0-14.5-6.5-14.5-14.5L0.5,0.6L0.5,0.6
								z"/>
							<path id="Path_76_" class="st11" d="M5.1,6.8c5,5.4,8.1,10.7,9.2,15.9l0.1,0.3l0.1,0.3c1,5.8,1.6,20.5,1.8,44.1
								c0,0.3,0.2,0.5,0.5,0.5c0.3,0,0.5-0.2,0.5-0.5l0-2.9l0-3.4c-0.2-20.9-0.8-33.8-1.9-38.7c-1.1-5.4-4.3-10.9-9.4-16.4
								c-0.2-0.2-0.5-0.2-0.7,0C4.9,6.3,4.9,6.6,5.1,6.8z"/>
						</g>
						<path id="Rectangle_22_" class="st6" d="M58.6,35.6c-8.6-0.2-15.8,6.7-15.9,15.4c0,0,0,0,0,0l-0.1,7.7l0,0
							c8.6,0.2,15.8-6.7,15.9-15.4c0,0,0,0,0,0L58.6,35.6L58.6,35.6z"/>
						<path id="Path_77_" class="st11" d="M53,38.7c-5.6,8.2-9.6,16-12.2,23.6c-2.6,7.6-5.1,19.3-7.7,35.1c0,0.3,0.1,0.5,0.4,0.5
							c0.3,0,0.5-0.1,0.5-0.4l0.3-1.9l0.2-1.3c2.4-14.2,4.7-24.8,7.1-31.8c2.5-7.5,6.6-15.3,12.1-23.4c0.1-0.2,0.1-0.5-0.1-0.7
							C53.4,38.4,53.1,38.4,53,38.7z"/>
						<g id="Group-87" transform="translate(33.142697, 13.911947)">
							<path id="Path_78_" class="st11" d="M7.8,19.4c-3,8.6-5.2,19.2-6.5,31.8S-0.3,76.4,0.4,89l2.2,0.2c-0.8-14.7-0.7-27.4,0.2-38
								s2.9-21.2,6-31.8L7.8,19.4z"/>
							<path id="Oval_5_" class="st68" d="M7.4,23.8c3.9,1,7.8-1.4,8.8-5.3c1-3.9-1.9-15.9-3.5-16.3C11.2,1.8,3.1,11,2.1,15
								C1.1,18.9,3.5,22.9,7.4,23.8z"/>
							<path id="Oval_6_" class="st6" d="M8.5,20.8c2.7,0.7,5.5-1,6.2-3.8c0.7-2.8-1.9-10.1-3-10.3c-1.1-0.3-6.1,5.1-6.8,7.9
								C4.1,17.3,5.8,20.1,8.5,20.8z"/>
							
								<linearGradient id="Path_181_" gradientUnits="userSpaceOnUse" x1="-653.9102" y1="828.4067" x2="-653.9102" y2="827.34" gradientTransform="matrix(6.8994 0 0 -15.5301 4521.8481 12869.7256)">
								<stop  offset="0" style="stop-color:#FE62BE"/>
								<stop  offset="1" style="stop-color:#FDB3A8"/>
							</linearGradient>
							<path id="Path_79_" class="st69" d="M9.6,20.1l4.1-12.7c0.2-0.8-0.2-1.6-0.9-1.8c-0.7-0.2-1.5,0.2-1.8,0.9L6.9,19.2
								C6.6,20,7,20.8,7.8,21C8.5,21.3,9.3,20.8,9.6,20.1z"/>
						</g>
						
							<g id="Group-87_1_" transform="translate(19.400683, 46.275460) scale(-1, 1) rotate(6.000000) translate(-19.400683, -46.275460) translate(9.400683, 1.275460)">
							<path id="Path_80_" class="st11" d="M7.8,19.4c-3,8.6-5.2,19.2-6.5,31.8S-0.3,76.4,0.4,89l2.2,0.2c-0.8-14.7-0.7-27.4,0.2-38
								s2.9-21.2,6-31.8L7.8,19.4z"/>
							<path id="Oval_7_" class="st68" d="M7.4,23.8c3.9,1,7.8-1.4,8.8-5.3c1-3.9-1.9-15.9-3.5-16.3C11.2,1.8,3.1,11,2.1,15
								C1.1,18.9,3.5,22.9,7.4,23.8z"/>
							<path id="Oval_8_" class="st6" d="M8.5,20.8c2.7,0.7,5.5-1,6.2-3.8c0.7-2.8-1.9-10.1-3-10.3c-1.1-0.3-6.1,5.1-6.8,7.9
								C4.1,17.3,5.8,20.1,8.5,20.8z"/>
							
								<linearGradient id="Path_182_" gradientUnits="userSpaceOnUse" x1="898.4941" y1="748.0647" x2="898.4941" y2="746.998" gradientTransform="matrix(-6.8616 -1.6233 0.7212 -15.445 5635.876 13016.9209)">
								<stop  offset="0" style="stop-color:#FE62BE"/>
								<stop  offset="1" style="stop-color:#FDB3A8"/>
							</linearGradient>
							<path id="Path_81_" class="st70" d="M9.6,20.1l4.1-12.7c0.2-0.8-0.2-1.6-0.9-1.8c-0.7-0.2-1.5,0.2-1.8,0.9L6.9,19.2
								C6.6,20,7,20.8,7.8,21C8.5,21.3,9.3,20.8,9.6,20.1z"/>
						</g>
						<path id="Path_82_" class="st11" d="M66,58.3C54.8,62.7,47,67.8,42.5,73.6c-4.4,5.8-7.4,14.7-8.8,26.9c0,0.3,0.2,0.5,0.4,0.5
							c0.3,0,0.5-0.2,0.5-0.4c1.4-12,4.3-20.8,8.6-26.4c4.3-5.6,12-10.6,23.1-14.9c0.2-0.1,0.4-0.4,0.3-0.6
							C66.5,58.4,66.3,58.3,66,58.3z"/>
					</g>
					<g id="Group-38" transform="translate(9.000000, 63.838776)">
						<path id="Path-151" class="st11" d="M26.9,30.6C23.4,17.9,14.6,13.5,0.5,17.2c10.5,3.4,18.4,7.9,23.8,13.4H26.9z"/>
						<path id="Path-151_1_" class="st11" d="M26.9,27.7C30.4,15,38.1,9.6,50,11.5c-7.2,5.9-14,11.3-20.5,16.2H26.9z"/>
						<path id="Path-151_2_" class="st11" d="M26.8,31.5c-3.2-11.2-1.1-21.7,6.4-31.4c-0.4,13.3-1.9,23.3-4.4,30.1L26.8,31.5z"/>
						<path id="Path-114" class="st6" d="M22.2,27.7c-2.1-6.1-4.2-14.6-5.8-22.8c7.8,3.1,10.3,15.6,7.8,22.8H22.2z"/>
						<g id="Group-89" transform="translate(6.356670, 21.127769)">
							<g id="Rectangle_23_">
								<path id="path-18_1_" class="st71" d="M2.7,0.4h30.7c1.1,0,2,0.9,2,2c0,0.1,0,0.1,0,0.2l-5.9,67.6c-0.1,1-1,1.8-2,1.8H8.6
									c-1,0-1.9-0.8-2-1.8L0.7,2.6C0.6,1.5,1.4,0.5,2.5,0.5C2.6,0.4,2.6,0.4,2.7,0.4z"/>
							</g>
							<defs>
								<filter id="Adobe_OpacityMaskFilter_7_" filterUnits="userSpaceOnUse" x="-3.9" y="-4" width="18.6" height="81.8">
									<feColorMatrix  type="matrix" values="1 0 0 0 0  0 1 0 0 0  0 0 1 0 0  0 0 0 1 0"/>
								</filter>
							</defs>
							<mask maskUnits="userSpaceOnUse" x="-3.9" y="-4" width="18.6" height="81.8" id="mask-19_1_">
								<g class="st72">
									<path id="path-18_2_" class="st9" d="M2.7,0.4h30.7c1.1,0,2,0.9,2,2c0,0.1,0,0.1,0,0.2l-5.9,67.6c-0.1,1-1,1.8-2,1.8H8.6
										c-1,0-1.9-0.8-2-1.8L0.7,2.6C0.6,1.5,1.4,0.5,2.5,0.5C2.6,0.4,2.6,0.4,2.7,0.4z"/>
								</g>
							</mask>
							<path id="Rectangle_24_" class="st73" d="M-3.9-4H9C1,26.4,25.1,47.4,9,77.8H-3.9V-4z"/>
						</g>
					</g>
				</g>
				<g id="Chair4_1_" transform="translate(571.625668, 275.910204)">
					<polygon id="Path-25" class="st6" points="47.1,89 35.7,179.4 41.7,179.3 53.1,89.8 					"/>
					<polygon id="Path_83_" class="st6" points="13.8,89 2.4,179.4 8.4,179.3 19.8,89.8 					"/>
					<polygon id="Path_84_" class="st11" points="86.9,89 98.3,179.4 92.3,179.3 80.9,89.8 					"/>
					<path id="Path_85_" class="st6" d="M0,93.7c0-5.2,4.2-9.4,9.4-9.4h37.8c5.7,0,10.5-4.4,11-10l6-64.2c0.5-5.7,5.3-10,11-10H99
						c6.1,0,11.1,5,11.1,11.1c0,0.3,0,0.6,0,0.8l-6.2,81c-0.4,5.8-5.3,10.2-11.1,10.2H9.4C4.2,103.2,0,99,0,93.7z"/>
					<path id="Combined-Shape_1_" class="st11" d="M98.8,0c0.6,0,1.1,0,1.7,0.1c0.1,0.6,0.1,1.1,0.1,1.7c0,0.3,0,0.6,0,0.9
						l-6.2,80.7c-0.4,5.8-5.3,10.2-11.1,10.2H0.2l-0.2,0c0-0.1,0-0.1,0-0.2c0-5.2,4.2-9.4,9.4-9.4h37.6c5.7,0,10.5-4.4,11-10l6-64
						c0.5-5.7,5.3-10,11-10H98.8z"/>
				</g>
				
					<g id="Wom2.4" transform="translate(601.000000, 329.500000) scale(-1, 1) translate(-601.000000, -329.500000) translate(517.000000, 200.000000)">
					<g id="LLeg_2_" transform="translate(36.000000, 133.000000)">
						
							<linearGradient id="Path_183_" gradientUnits="userSpaceOnUse" x1="1356.3634" y1="824.9987" x2="1356.4403" y2="824.1782" gradientTransform="matrix(-30.1398 0 0 -25.0019 40943.2734 20717.5938)">
							<stop  offset="0" style="stop-color:#FDC6C6"/>
							<stop  offset="1" style="stop-color:#FAB2B2"/>
						</linearGradient>
						<path id="Path_86_" class="st74" d="M65.9,93.4c0,0-5.2,10.6-0.9,13.9c4.3,3.3,15.7,9.6,15.7,9.6l-30.1-1.9l6.7-23.1
							L65.9,93.4z"/>
						<path id="Path_87_" class="st75" d="M53.5,103c0.9,0.5-0.6,4.7,2.7,4.4c3.3-0.3,5.4-4.7,7.9-4.4c2.5,0.3,4,4.7,8.7,7.8
							c4.7,3.1,11.6,6.8,11.2,9.9c-0.5,3.1-11.4,3.9-16.9,2.9c-5.5-1-8.1-3.3-11.7-3.1c-3.6,0.2-5.8-0.3-7-2.6
							C47.2,115.6,52.4,102.5,53.5,103z"/>
						<path id="Path_88_" class="st76" d="M53.7,117.2l0.3,0c4.5-0.4,7.5,2.4,11.7,3.2c4.2,0.8,15.4,1.1,17.2-1.6
							c0.1-0.1,0.2-0.3,0.2-0.4c0.6,0.7,0.9,1.5,0.7,2.4c-0.5,3-11.4,3.7-16.9,2.8c-5.5-1-8.1-3.1-11.7-2.9l-0.6,0
							c-3.2,0.1-5.3-0.4-6.3-2.5c-0.3-0.5-0.2-1.6,0.1-2.9C49.9,116.3,51.8,117.2,53.7,117.2L53.7,117.2z"/>
						<path id="Path_89_" class="st77" d="M20.5,0c9.1,0.4,59.9,11.6,69.1,13.5s17,12.2,10,24.2c-7.9,13.4-28.3,51.5-33.2,60.1
							c-2.5,4.3-14.8,1.9-11.9-5.3c5.4-13.3,7.9-46.7,21.7-58.9c0,0-46.4,8.1-66.5-1.2C-4.8,25.8-1.5-1,20.5,0z"/>
					</g>
					<g id="LArm_2_" transform="translate(63.520000, 56.320000)">
						
							<linearGradient id="Path_184_" gradientUnits="userSpaceOnUse" x1="1321.3986" y1="916.6775" x2="1321.4637" y2="915.4851" gradientTransform="matrix(-46.78 0 0 -50.8192 61867.168 46572.9727)">
							<stop  offset="0" style="stop-color:#FDC6C6"/>
							<stop  offset="1" style="stop-color:#FAB2B2"/>
						</linearGradient>
						<path id="Path_90_" class="st78" d="M56.6,19.8c0,0-0.1-5.4,2.5-9.3s2.7-8,4.7-7.9c2,0.1,0,9.7,0,9.7s2.5-1,4.3-2.2
							C69.9,8.9,75.3,3,76.6,4C78.7,5.8,75.3,16,73.4,18c-1.9,2-11.2,7.7-11.2,7.7L34.6,53.4l-4.1-14.7L56.6,19.8z"/>
						<path id="Path_91_" class="st79" d="M1.5,17.3c4.2,9.8,12,27.9,15.2,33.3c4,6.8,10.3,9.7,17.8,4.7c1-0.7,3-2.3,6-4.7
							c-0.7-6.4-3.1-11.8-7.2-16.1c-1.9,1.5-2.8,2.3-2.8,2.3s-8-20.4-14.4-32.2C10.6-5.6-4.9,2.3,1.5,17.3z"/>
						<path id="Path_92_" class="st54" d="M30.6,36.9c1.4,4.8,2.3,7.1,2.6,6.8c0.3-0.3,0.2-3.2-0.4-8.7L30.6,36.9z"/>
					</g>
					<g id="Head_2_" transform="translate(35.000000, 0.000000)">
						<path id="Path_93_" class="st31" d="M11.7,35.4v8.7L5.3,39c0,0-2-8.3-3.6-14.5c-1-3.9-3.4-17,6.4-16.4
							c8.1-14.2,31.5-5.4,31.7,11.9c0.2,20.9,0,29,0,29C26.6,49.7,19.2,47.8,11.7,35.4z"/>
						
							<linearGradient id="Path_185_" gradientUnits="userSpaceOnUse" x1="1360.229" y1="965.7394" x2="1360.3938" y2="964.2421" gradientTransform="matrix(-26.5056 0 0 -33.7119 36069.1523 32575.1406)">
							<stop  offset="0" style="stop-color:#FFAFAF"/>
							<stop  offset="1" style="stop-color:#F07777"/>
						</linearGradient>
						<path id="Path_94_" class="st80" d="M5.2,52c0,0,6-1.4,6.2-11.1c0.2-9.8,0.1-13.1,0.1-13.1l13.1-0.2c0,0,0.1,10.9,0.1,14.8
							c0,9.6,7,10.3,7,10.3s-1.2,7.9-13.1,8.6C9.3,61.7,5.2,52,5.2,52z"/>
						
							<linearGradient id="Path_186_" gradientUnits="userSpaceOnUse" x1="1356.3431" y1="962.8323" x2="1356.5774" y2="961.8641" gradientTransform="matrix(-31.6686 0 0 -29.9319 42971.4141 28830.2715)">
							<stop  offset="0" style="stop-color:#FDC6C6"/>
							<stop  offset="1" style="stop-color:#FAB2B2"/>
						</linearGradient>
						<path id="Path_95_" class="st81" d="M8.3,22.9c-5.8-0.2-4.9,8.3,1.2,8.3c0,0,3.5,12.2,15.8,12.2c9.9,0,10.6-14.2,10.7-17
							c0.1-3,0.1-12.9,0.1-12.9l-28,0L8.3,22.9z"/>
						<path id="Path_96_" class="st31" d="M7.9,22.8c2.4,0.4,2.1,2,2.8,1.9c3.3-0.7,16.9,0.2,18.6-7.2c2.2,4.7,2.7,5.8,7.5,7V10.9
							L6.6,8C6.6,8,7,22.7,7.9,22.8z"/>
						<path id="Path_97_" class="st34" d="M22.9,35.2c0,0,2.9,2.5,6.3,0.2"/>
						<path id="Path_98_" class="st35" d="M24.9,38.1c0.9,0.4,1.8,0.4,2.6,0"/>
						<path id="Path-8_2_" class="st36" d="M8.9,27.5C9,26.1,8.6,25,7.2,24.8"/>
					</g>
					<g id="Body_2_" transform="translate(20.000000, 50.000000)">
						<path id="Path_99_" class="st82" d="M21.5,1C29,5.6,37.6,7.3,45.7,2.3C58.8,28.1,62,59,58.9,93.1c-19.1,7.6-35.2,6.1-48.9-2.6
							L21.5,1z"/>
						<g id="RLeg_1_" transform="translate(2.000000, 79.000000)">
							
								<linearGradient id="Path_187_" gradientUnits="userSpaceOnUse" x1="1365.9087" y1="831.8502" x2="1365.9856" y2="831.2185" gradientTransform="matrix(-38.2653 0 0 -27.8509 52385.2695 23267.8984)">
								<stop  offset="0" style="stop-color:#FDC6C6"/>
								<stop  offset="1" style="stop-color:#FAB2B2"/>
							</linearGradient>
							<path id="Path_100_" class="st83" d="M112.6,97.8c0,0-0.2,12.5,10.1,17.1c10.3,4.7,17.6,4.4,16.7,8
								c-0.9,3.6-27.7,3.5-30.2,0.6c-2.1-2.4-6.8-24.7-8-23L112.6,97.8z"/>
							<path id="Path_101_" class="st75" d="M105.1,115.5c1.6-1.1,2.9,5.4,7.2,3.6c4.3-1.8,0.9-7.8,3.6-8.9
								c2.7-1.1,7.9,4.8,14.8,6.3c6.9,1.4,12.5,2.7,14.1,5.4c1.4,2.3,0,3,0,3s-6.6,3.3-10.8,4c-6,1.1-23.3,1.8-25.2-0.2
								C107.6,127.5,104.3,116,105.1,115.5z"/>
							<path id="Path_102_" class="st76" d="M145.2,122.1c1.3,2.1-0.8,3.2-1,3.3l-1,0.4c-1.9,0.8-6.1,2.5-9.3,3.1
								c-5.7,1.1-23.5,1.7-25.5-0.1c-0.3-0.3-0.8-1.5-1.2-3.1l1.2,0.1c5.9,0.6,19,1.7,25.5,0.2c5.7-1.4,8.9-3.6,10.3-4.9
								C144.7,121.4,145,121.7,145.2,122.1z"/>
							<path id="Path_103_" class="st84" d="M5.9,0.2c-8.8,18.7-7.1,31.2,5.4,37.6c18,9.3,72-1.7,72-1.7s-1,7.8,0,14.7
								c2.5,18.1,14.5,48.2,17,52c3.5,5.2,14.2,1.3,14.4-3.1c0.2-4.4-8-60-9.3-70.7c-1.2-10.6-5.2-12.2-16.7-15.1
								C86,13.3,54.8,5.6,51.9,5.8C35.5,7.1,20.2,5.2,5.9,0.2z"/>
							<path id="Path_104_" class="st85" d="M20.4,34.9c17.8,2,65.1-2.1,67-0.2c1.8,1.8,1.5,32.9,5.6,50.9l-0.6-1.7
								c-3.8-10.6-7.8-23.5-9.1-33.1c-1-6.9,0-14.7,0-14.7l-2.2,0.4c-10.3,1.9-54,9.5-69.8,1.3C2.7,33.4-0.8,26,0.8,15.7
								C3.5,27.3,10,33.8,20.4,34.9z"/>
						</g>
						<path id="Path_105_" class="st79" d="M21.8,1C34.2,41.5,41.6,99,3,89c20.5-37.8-7.4-54.8-1.1-74.3C4.1,8,21.7,0.5,21.8,1z"/>
						<path id="Path_106_" class="st54" d="M7.9,17.8C21.9,20,10.3,44.4,15,48s12.6,4.1,13.5,6.3c1.7,4.5-6.7,15.9-25.2,34.2L3,89
							c17.9-32.9-1-50.1-2-66.8C3.1,18.9,5.4,17.5,7.9,17.8z"/>
						<path id="Path_107_" class="st79" d="M45,2c4.7,11.8,7,21.1,9.1,38.5c1.2,9.6,1.5,24.4,0.9,44.3l5.8,1.1
							c2.8-30.8,3.7-48.1,2.8-52.1c-2.3-10-3.9-15.8-7-24.9C54.9,4,45,2,45,2z"/>
					</g>
					<g id="RArm_2_" transform="translate(0.000000, 59.900000)">
						
							<linearGradient id="Path_188_" gradientUnits="userSpaceOnUse" x1="1382.8412" y1="904.8409" x2="1382.918" y2="904.4203" gradientTransform="matrix(-55.4618 0 0 -32.9415 76735.7578 29841.6172)">
							<stop  offset="0" style="stop-color:#FDC6C6"/>
							<stop  offset="1" style="stop-color:#FAB2B2"/>
						</linearGradient>
						<path id="Path_108_" class="st86" d="M44.4,37.1c0,0,7.6-7.6,10.3-8.5c2.6-0.9,17.1-1.9,17,0.1c-0.1,2.1-9.4,2-10.3,3.1
							c-0.9,1.1-2.1,9.3-5.3,10.1c-3.2,0.8-10,3.2-10,3.2L16.2,60.5L19.4,45L44.4,37.1z"/>
						<path id="Path_109_" class="st79" d="M21.5,4.8C12.4,17.6,4.7,37.2,1.7,44.8s0,19.1,13.1,16.8c1-0.2,2.4-0.6,4.1-1.3
							c4.8-6.6,5.7-12.3,3.9-17.3c-1.1,0.5-1.7,0.7-1.7,0.7s13-23,16.2-29.2C42.6,4.2,29.5-6.5,21.5,4.8z"/>
						<path id="Path_110_" class="st54" d="M21.1,43.8c-4.4,2.2-6.3,2.8-5.8,1.8c0.6-0.9,3.3-3,8.3-6.3L21.1,43.8z"/>
					</g>
				</g>
				
					<g id="Group-3_1_" transform="translate(544.885264, 274.915964) rotate(-14.000000) translate(-544.885264, -274.915964) translate(529.885264, 254.415964)">
					<linearGradient id="Rectangle_45_" gradientUnits="userSpaceOnUse" x1="-3.354" y1="15.6112" x2="33.5666" y2="15.6112">
						<stop  offset="0" style="stop-color:#565656"/>
						<stop  offset="1" style="stop-color:#111111"/>
					</linearGradient>
					<path id="Rectangle_25_" class="st87" d="M2.5,0l24.2,0c1.4,0,2.5,1.1,2.5,2.5l0,35.2c0,1.4-1.1,2.5-2.5,2.5H2.5
						c-1.4,0-2.5-1.1-2.5-2.5L0,2.5C0,1.1,1.1,0,2.5,0z"/>
					<path id="Rectangle_26_" class="st88" d="M3.2,0.8l24.2,0c1.4,0,2.5,1.1,2.5,2.5v35.2c0,1.4-1.1,2.5-2.5,2.5H3.2
						c-1.4,0-2.5-1.1-2.5-2.5l0-35.2C0.8,1.9,1.9,0.8,3.2,0.8z"/>
					<path id="Rectangle_27_" class="st89" d="M3.9,1.5l22.7,0c1.2,0,2.2,1,2.2,2.2l0,31.8c0,1.2-1,2.2-2.2,2.2H3.9
						c-1.2,0-2.2-1-2.2-2.2l0-31.8C1.7,2.5,2.6,1.5,3.9,1.5z"/>
				</g>
				<g id="Group-26_9_" transform="translate(198.804813, 310.871429)">
					<g id="Group-25" transform="translate(11.570160, 0.000000)">
						<polygon id="Rectangle_28_" class="st90" points="112.8,0 124.2,0 124.2,144.9 112.8,144.9 						"/>
						<polygon id="Rectangle_29_" class="st91" points="1,4.8 91.2,4.8 91.2,31.7 16,31.7 16,144.9 1,144.9 						"/>
						<polygon id="Rectangle_30_" class="st92" points="0.4,4.8 8.4,4.8 8.4,144.9 0.4,144.9 						"/>
					</g>
					<g id="Group-25_1_">
						<polygon id="Rectangle_31_" class="st90" points="404.6,4.8 420.6,4.8 420.6,144.9 404.6,144.9 						"/>
						<polygon id="Rectangle_32_" class="st92" points="404.6,0 414.6,0 414.6,144.9 404.6,144.9 						"/>
						<polygon id="Rectangle_33_" class="st91" points="272.2,4.8 411.2,4.8 411.2,31.3 290.9,31.3 290.9,144.9 272.2,144.9 						
							"/>
						<polygon id="Rectangle_34_" class="st92" points="23.8,0 272.7,0 272.7,40.2 23.8,40.2 						"/>
						<polygon id="Rectangle_35_" class="st90" points="267,4.8 278.4,4.8 278.4,40.2 267,40.2 						"/>
						<polygon id="Rectangle_36_" class="st92" points="272.2,4.8 281.2,4.8 281.2,144.9 272.2,144.9 						"/>
						<path id="Rectangle_37_" class="st90" d="M280.8,0h145.1c3.9,0,7.1,3.2,7.1,7.1s-3.2,7.1-7.1,7.1H280.8
							c-3.9,0-7.1-3.2-7.1-7.1S276.9,0,280.8,0z"/>
						<polygon id="Rectangle_38_" class="st90" points="20.9,2.9 269.8,2.9 269.8,17.1 20.9,17.1 						"/>
						<path id="Rectangle_39_" class="st92" d="M7.1,0h276.5c3.9,0,7.1,3.2,7.1,7.1s-3.2,7.1-7.1,7.1H7.1C3.2,14.3,0,11.1,0,7.1
							S3.2,0,7.1,0z"/>
					</g>
				</g>
				
					<g id="Men2.8" transform="translate(261.096257, 330.153061) scale(-1, 1) translate(-261.096257, -330.153061) translate(174.596257, 203.153061)">
					
						<g id="RLeg_2_" transform="translate(99.474263, 195.228252) scale(-1, 1) translate(-99.474263, -195.228252) translate(54.474263, 136.728252)">
						<path id="Path_111_" class="st93" d="M40.3,80.3l-7.9,25.6l16.6,0.6c0,0-1.9-8.8,0.8-17c2.1-6.6,3.9-9.9,3.9-9.9L40.3,80.3z"
							/>
						<path id="Path_112_" class="st94" d="M48.5,99.5c4.2,3.9,8.4,6.6,12.4,8c6.1,2.2,8.4,2.2,8.8,3l0.1,0.2
							c1.3,2.6,0.5,6-13.4,6.2c-3.4,0-6.9-1.9-16.2-4l-0.7,3.6c-5.2-0.1-8.2-0.9-9.1-2.5c-1.3-2.4,0.9-13.9,2.5-14.2
							c1.5-0.2,1.8,4.5,6,4.6C43,104.6,48.5,99.5,48.5,99.5z"/>
						<path id="Combined-Shape_2_" class="st95" d="M48.5,99.5c4.1,3.8,8.1,6.4,12.1,7.9c-1.1,1.1-2.7,1.4-4.6,0.9
							c-2.4-0.5-5.5-3.1-9.2-7.7l0.2,0.2C47.9,100.1,48.5,99.5,48.5,99.5z"/>
						<path id="Path_113_" class="st96" d="M2.5,0c43.9,3.5,68.8,5.4,74.9,5.5c9.1,0.3,16,13.2,9,25.2c-7.9,13.4-29.3,52-33.5,60.9
							c-3.5,7.5-19.6,4.5-16.7-7.1c3.5-13.8,9.9-44.7,23.7-56.9c0,0-33.5,12.1-52.3,0.4C0.3,23.6-1.4,14.2,2.5,0z"/>
						<path id="Path_114_" class="st97" d="M86.3,30.7l-1,1.8c-4,6.9-10.4,18.5-16.6,29.9l0.3-1c4.8-15.1,12.1-33,15.3-38.4
							c1.1-1.9,2.6-3.9,4.5-5.8C89.7,21.3,89.1,26.1,86.3,30.7z"/>
					</g>
					
						<g id="LLeg_3_" transform="translate(68.521390, 196.400000) scale(-1, 1) translate(-68.521390, -196.400000) translate(0.521390, 138.900000)">
						<path id="Path_115_" class="st93" d="M103.9,78.4c0,0,4.4,19.6,10.1,21.7c2.2,0.8-16.9,3.1-16.9,3.1l-4.8-18.8L103.9,78.4z"/>
						<path id="Path_116_" class="st94" d="M94.4,96.6l-0.3,16.5l6.6,0l0.1-3.7c0,0,5.1,3.1,8.6,4.2c4.7,1.5,23.1,0.7,25.2-1.5
							c2.1-2.2,2.1-5.8-2.2-6.2c-4.3-0.4-11.4-1.7-14.4-4.1c-3.7-2.8-5.1-7.3-6.2-7.3c-1.6,0-1.8,5.2-10.1,5.3
							C98.6,99.8,94.4,96.6,94.4,96.6z"/>
						<path id="Path_117_" class="st95" d="M110.1,96c0,0,4.2,6.6,6.8,7.6c2.5,0.9,4.6-0.1,4.6-0.1s-4.4-1.7-6-4.8
							C111.6,91.8,110.8,95.3,110.1,96z"/>
						<path id="Path_118_" class="st96" d="M0,3.2c-0.1,14,4.6,22.8,14,26.3c14.1,5.3,60.1,3.3,60.1,3.3s14.6,53.7,18.1,58.9
							c3.5,5.2,20.1,5.8,19.2-6.3c-0.9-12-7.4-56.8-8.6-67.4C101.5,7.4,97.6,4.9,86.1,3c-4-0.7-2.3-1.7-28.3-3
							c-5.6-0.3-14.9,1.8-23.5,2.8C28.6,3.5,17.2,3.6,0,3.2z"/>
						<path id="Path_119_" class="st97" d="M45.9,3.6V1.2L47.1,1c4.2-0.6,8-1.1,10.8-1l3,0.1C83.7,1.4,82.3,2.4,86.1,3l0.7,0.1
							c10.7,1.8,14.5,4.4,15.8,14.2l0.4,3c1.7,13.6,7.5,53.8,8.3,65.1c0.1,0.9,0,1.7-0.1,2.5L108,71c-5-25.1-7.7-40-8.3-44.6l-0.1-1
							C98.4,17.2,95.5,7,86,7.6l-0.8,0.1c-6.7,0.5-19.3-0.8-37.8-3.8L45.9,3.6z"/>
						
							<ellipse id="Oval_9_" transform="matrix(0.225 -0.9744 0.9744 0.225 68.4206 125.7345)" class="st97" cx="113.2" cy="19.9" rx="6.6" ry="3.8"/>
					</g>
					<g id="RArm_3_" transform="translate(104.430481, 51.024490)">
						
							<linearGradient id="Path_189_" gradientUnits="userSpaceOnUse" x1="940.0762" y1="894.022" x2="940.1245" y2="892.8297" gradientTransform="matrix(-16.6733 -9.1915 11.5866 -21.0181 5339.021 27487.5977)">
							<stop  offset="0" style="stop-color:#FDC6C6"/>
							<stop  offset="1" style="stop-color:#A47070"/>
						</linearGradient>
						<path id="Path_120_" class="st98" d="M21.9,63.1c0,0-15.4,3.6-15.2,5c0.2,1.4,6.9,1.6,6.9,1.6S1.1,77.8,2.1,79.4
							c1,1.6,9.2,3.4,12.6,2.1c3.4-1.3,12.2-10.5,12.2-10.5L21.9,63.1z"/>
						<path id="Path_121_" class="st79" d="M21.8,17.5c5.2,6.4,22.7,25.8,22.7,25.8s-17.6,12.5-22,15.2c-7.3,4.3,0.1,15.9,5.4,14.6
							c7.2-1.7,25.4-14.3,34-19.4s5.3-13.3-1-20.8C56,27.2,45.4,15.4,38,5C30.6-5.3,11.8,5.2,21.8,17.5z"/>
						<path id="Path-15" class="st54" d="M44.5,43.3c3.3,3.2,4.8,4.9,4.4,5.1c-0.3,0.2-2.5-1-6.5-3.7L44.5,43.3z"/>
					</g>
					<g id="Head_3_" transform="translate(91.918950, 0.000000)">
						
							<linearGradient id="Path_190_" gradientUnits="userSpaceOnUse" x1="960.4979" y1="965.6968" x2="960.556" y2="964.5044" gradientTransform="matrix(-34.2549 0 0 -39.3867 32917.8984 38037.707)">
							<stop  offset="0" style="stop-color:#FDC6C6"/>
							<stop  offset="1" style="stop-color:#A47070"/>
						</linearGradient>
						<path id="Path_122_" class="st99" d="M3.6,21.9c-4.3,0.5-4,8.1,1.2,8.5c1.1,7.3,4.9,10.8,9.6,11.2l-0.3,11.1l20.7,0
							c0,0-5.8-7.8-5.5-18.6c0.3-10.7-0.2-20.8-0.2-20.8L2.3,13.8L3.6,21.9z"/>
						<path id="Path_123_" class="st100" d="M12,1.2c-15.9,4-9.4,21-9.4,21c4.8-0.7,9.4,5.2,11.2,10.9c5.1,5.2,11.7,5.2,16,2.2
							c4-12.4,5.4-20.7,4.1-24.8C32,4.2,26.6-2.5,12,1.2z"/>
					</g>
					<g id="Body_3_" transform="translate(80.216435, 46.620498)">
						<path id="Path_124_" class="st79" d="M61.4,8.5c1.4,2.4,2.5,12.2,0,51.1c-1.3,20.1,4.1,40,2.7,48.7c-0.9,5.8-4.6,9.1-11,9.8
							l-5.6-18.2l-2.6,18.2c-26.5-2.5-40.9-6.7-43.2-12.8C-1.8,96.3,2.6,75,3.6,54.9c1-20.1,0.3-40.8,2.2-44
							C9.7,4.7,19.6,1.8,25.7,0.8c7.8-1.2,17.8-1.2,23.8,0.7C55.5,3.4,60,6.1,61.4,8.5z"/>
						<path id="Path_125_" class="st54" d="M21,22.4c-3.1,23.1-7.3,39.4-12.6,48.7c-2.2,3.9-4.4,5.4-6.6,4.8l0.5-5.1
							c0.5-5.2,1-10.5,1.3-15.8C3.8,51.2,4,47.6,4.1,44L21,22.4z"/>
						<path id="Path_126_" class="st101" d="M49.5,1.5c0.4,0.1,0.7,0.2,1.1,0.4C42,5.6,27.8,5.1,20.1,2.1c2-0.6,3.9-1,5.6-1.2
							C33.5-0.4,43.5-0.4,49.5,1.5z"/>
					</g>
					<g id="LArm_3_" transform="translate(5.000000, 53.236735)">
						
							<linearGradient id="Path_191_" gradientUnits="userSpaceOnUse" x1="1054.6426" y1="904.3989" x2="1054.7042" y2="903.2066" gradientTransform="matrix(-24.5401 0 0 -27.402 25892.9258 24782.9922)">
							<stop  offset="0" style="stop-color:#FDC6C6"/>
							<stop  offset="1" style="stop-color:#A47070"/>
						</linearGradient>
						<path id="Path_127_" class="st102" d="M19.4,35.8c0,0-12.8-8.5-15-10.2C2.1,23.8-0.7,10.9,1.1,9.1c0.8-0.9,7.2,5,8.4,5.8
							c1.1,0.8,6.9,4.3,6.9,4.3s-1.6-9.9-0.2-10.7c1-0.6,3.1,2,3.4,4.7c0.3,2.7,3.2,6.2,3.6,10.3c0.2,1.8,1.9,5.2,1.9,5.2L19.4,35.8
							z"/>
						<path id="Path_128_" class="st79" d="M95.6,19.4c-4.9,10.2-13.2,25.1-17.8,33.8c-5.4,10.3-11.9,14.7-24.8,7
							c-10.9-6.4-26.6-16.7-34.7-22.3c-7.5-5.2,1.4-18.1,8.5-13.8c9.5,5.8,33.6,17.2,33.6,17.2S72.8,18.6,78,7.7
							C84.6-6.2,105.1-0.3,95.6,19.4z"/>
						<path id="Path_129_" class="st54" d="M60.4,41.3c-1.5,5.3-2.5,7.9-2.8,7.7c-0.4-0.2-0.2-3.2,0.4-8.8L60.4,41.3z"/>
					</g>
				</g>
				
					<g id="Chair8" transform="translate(228.251337, 367.800000) scale(-1, 1) translate(-228.251337, -367.800000) translate(172.751337, 277.800000)">
					<polygon id="Path_130_" class="st11" points="52,98.4 63.4,179.4 57.4,179.3 46,99.3 					"/>
					<polygon id="Path_131_" class="st6" points="13.8,98.4 2.4,179.4 8.4,179.3 19.8,99.3 					"/>
					<polygon id="Path_132_" class="st11" points="86.9,98.4 98.3,179.4 92.3,179.3 80.9,99.3 					"/>
					<path id="Path_133_" class="st11" d="M0,93.7c0-5.2,4.2-9.4,9.4-9.4h37.8c5.7,0,10.5-4.4,11-10l6-64.2c0.5-5.7,5.3-10,11-10H99
						c6.1,0,11.1,5,11.1,11.1c0,0.3,0,0.6,0,0.8l-6.2,81c-0.4,5.8-5.3,10.2-11.1,10.2H9.4C4.2,103.2,0,99,0,93.7z"/>
					<path id="Combined-Shape_3_" class="st6" d="M69.5,1.6l-6.3,81.9c-0.4,5.8-5.3,10.2-11.1,10.2h-52l-0.2,0c0-0.1,0-0.1,0-0.2
						c0-5.2,4.2-9.4,9.4-9.4h37.6c5.7,0,10.5-4.4,11-10l6-64C64.5,6.4,66.6,3.3,69.5,1.6z"/>
				</g>
				
					<g id="Front-Laptop3" transform="translate(458.112299, 290.795918) scale(-1, 1) translate(-458.112299, -290.795918) translate(411.612299, 269.295918)">
					<linearGradient id="Rectangle_47_" gradientUnits="userSpaceOnUse" x1="92.2604" y1="40.7952" x2="177.8897" y2="40.7952">
						<stop  offset="0" style="stop-color:#2D2D2D"/>
						<stop  offset="1" style="stop-color:#020202"/>
					</linearGradient>
					<path id="Rectangle_40_" class="st103" d="M7.4,39.5h84.1c0.4,0,0.7,0.3,0.7,0.7v1.1c0,0.4-0.3,0.7-0.7,0.7H7.4
						c-0.4,0-0.7-0.3-0.7-0.7v-1.1C6.6,39.8,7,39.5,7.4,39.5z"/>
					<path id="Rectangle_41_" class="st88" d="M7.4,39.5h32.3c0.4,0,0.7,0.3,0.7,0.7v1.1c0,0.4-0.3,0.7-0.7,0.7H7.4
						c-0.4,0-0.7-0.3-0.7-0.7v-1.1C6.6,39.8,7,39.5,7.4,39.5z"/>
					<path id="Rectangle_42_" class="st88" d="M4.1,0h55.8c1.8,0,3.3,1.3,3.6,3.1l4.2,32.4c0.3,2-1.1,3.8-3.1,4c-0.2,0-0.3,0-0.5,0
						H8.2c-1.8,0-3.3-1.3-3.6-3.1L0.5,4.1c-0.3-2,1.1-3.8,3.1-4C3.8,0,3.9,0,4.1,0z"/>
					<linearGradient id="Rectangle_48_" gradientUnits="userSpaceOnUse" x1="68.1722" y1="19.8066" x2="134.1555" y2="19.8066">
						<stop  offset="0" style="stop-color:#303030"/>
						<stop  offset="1" style="stop-color:#0C0C0C"/>
					</linearGradient>
					<path id="Rectangle_43_" class="st104" d="M5.8,0h54.6c1.8,0,3.3,1.3,3.6,3.1l4.2,32.4c0.3,2-1.1,3.8-3.1,4c-0.2,0-0.3,0-0.5,0
						H9.9c-1.8,0-3.3-1.3-3.6-3.1L2.2,4.1C2,2.1,3.4,0.3,5.3,0C5.5,0,5.6,0,5.8,0z"/>
					<path id="Rectangle_44_" class="st89" d="M7.4,1.9h51.8c1.6,0,3,1.2,3.2,2.8l3.7,29.2c0.2,1.8-1,3.4-2.8,3.6
						c-0.1,0-0.3,0-0.4,0H11.1c-1.6,0-3-1.2-3.2-2.8L4.2,5.5C3.9,3.8,5.2,2.1,7,1.9C7.1,1.9,7.2,1.9,7.4,1.9z"/>
				</g>
				
					<g id="Wom3.8" transform="translate(403.000000, 333.500000) scale(-1, 1) translate(-403.000000, -333.500000) translate(323.000000, 209.000000)">
					<g id="RArm_4_" transform="translate(100.000000, 54.000000)">
						
							<linearGradient id="Path_192_" gradientUnits="userSpaceOnUse" x1="1076.0557" y1="902.4569" x2="1076.0939" y2="901.2646" gradientTransform="matrix(-26.5052 -14.6114 20.7484 -37.6376 9836.4189 49717.9453)">
							<stop  offset="0" style="stop-color:#FDC6C6"/>
							<stop  offset="1" style="stop-color:#FFCCA1"/>
						</linearGradient>
						<path id="Path_134_" class="st105" d="M19.4,56.2c0,0-13.6,3.2-13.5,4.4C6,61.9,12,62.1,12,62.1S0.9,69.3,1.8,70.7
							c0.9,1.4,8.1,3,11.1,1.9c3-1.1,10.8-9.4,10.8-9.4l21.8-11.7l-7.3-9.6L19.4,56.2z"/>
						<path id="Path_135_" class="st106" d="M19.2,15.6c4.6,5.7,20.1,23,20.1,23s-1,0.8-3.1,2.3l10,12.1c4.2-2.6,7.1-4.3,8.5-5.2
							c7.6-4.5,4.7-11.8-0.9-18.5c-4.3-5.1-13.6-15.6-20.2-24.8C27-4.7,10.4,4.6,19.2,15.6z"/>
						<path id="Path-15_1_" class="st54" d="M39.3,38.6c2.9,2.8,4.2,4.4,3.9,4.6c-0.3,0.2-2.2-0.9-5.7-3.3L39.3,38.6z"/>
						<polygon id="Path-76" class="st107" points="36.9,39.6 49.9,52.5 43.4,56.7 34.4,41.5 						"/>
					</g>
					
						<g id="LLeg_4_" transform="translate(97.500000, 190.500000) scale(-1, 1) translate(-97.500000, -190.500000) translate(55.000000, 132.000000)">
						
							<linearGradient id="Path_193_" gradientUnits="userSpaceOnUse" x1="-1068.6628" y1="815.7136" x2="-1068.6279" y2="814.5212" gradientTransform="matrix(-15.9938 0 0 -23.7498 -17045.9668 19443.0273)">
							<stop  offset="0" style="stop-color:#FDC6C6"/>
							<stop  offset="1" style="stop-color:#FAB2B2"/>
						</linearGradient>
						<path id="Path_136_" class="st108" d="M44.6,77.2l-7,22.6l11.8,0.5c0,0-1.7-7.7,0.7-15c1.9-5.8,3.5-8.7,3.5-8.7L44.6,77.2z"/>
						<path id="Path_137_" class="st94" d="M49.5,93.8c0,0-0.2,5.8,1.8,7.6c2,1.8,12.7,8.5,13.6,9.9c0.9,1.4-0.4,3-0.4,3
							s-10.9,1.7-16-0.9c-3.7-1.9-6.4-3.5-6.4-3.5l-1.1,2.9l-6-0.9c0,0-1.8-4.6-1-7c0.8-2.3,4.9-13.1,4.9-13.1S42.3,92.5,49.5,93.8z
							"/>
						<path id="Path_138_" class="st109" d="M10.2,0c8.9,0.9,52.7,11.3,61.7,13.1s16.6,11.9,9.8,23.5c-5.1,8.7-15,26.5-29.5,53.5
							c-0.1,0-0.3,0.1-0.4,0.1c-4.4,0-8.4-0.6-12.2-3.3c3.9-28.3,10.3-46.4,19.3-54.3c0,0-34.8,12.5-52.2-1.1
							C-3.7,23.5,0.5-0.9,10.2,0z"/>
						<path id="Combined-Shape_4_" class="st97" d="M81.7,36.7c-1.4,2.4-3.2,5.5-5.2,9.1l2.3-29.3C84.1,20.7,86.7,28.3,81.7,36.7z"
							/>
					</g>
					
						<g id="RLeg_3_" transform="translate(64.000000, 188.000000) scale(-1, 1) translate(-64.000000, -188.000000) translate(0.000000, 129.000000)">
						
							<linearGradient id="Path_194_" gradientUnits="userSpaceOnUse" x1="-1079.7085" y1="816.072" x2="-1079.6653" y2="814.8796" gradientTransform="matrix(-16.3969 0 0 -21.8606 -17604.3711 17912.1289)">
							<stop  offset="0" style="stop-color:#FDC6C6"/>
							<stop  offset="1" style="stop-color:#FAB2B2"/>
						</linearGradient>
						<path id="Path_139_" class="st110" d="M98.1,78.4c0,0,3.9,17.3,8.9,19.1c1.9,0.7-12,2.7-12,2.7l-4.2-16.6L98.1,78.4z"/>
						<path id="Path_140_" class="st94" d="M93.3,95.5l3.7,21.6l6.4-1l-0.8-5.3c0,0,2.8,4.7,5.9,4.5c3.1-0.2,18.8-2.6,18.8-2.6
							s0.4-5.2-6.8-6.4c-6-1-16.2-12.5-16.2-12.5L93.3,95.5z"/>
						<path id="Path_141_" class="st111" d="M5.7,0.2c-8.6,18.1-6.8,30.3,5.2,36.5c17.4,9,63.8-2.6,63.8-2.6s-0.9,7.5,0,14.3
							C77.2,65.9,89.2,87.4,90.3,91c0.5,1.8,13.9-0.9,13.9-3s-6.8-50.5-8-60.8c-1.2-10.3-5-11.8-16.2-14.6c-2.6-0.6-35.7-8.2-38.5-8
							C25.6,5.9,13.7,4.4,5.7,0.2z"/>
						<path id="Path_142_" class="st97" d="M41.5,4.7c2.8-0.2,35.9,7.3,38.5,8l1.8,0.5c9.5,2.5,13,4.3,14.2,13.5l0.3,2.6
							c1,7.6,3.7,25.6,5.9,40.6c-2.4-5.5-4.4-11.6-6-18.3c-3.7-15.6-2.9-28.4-3.9-30.7c-1-2.2-49.5-9.4-57.8-10.9
							c-3.6-0.6-5.7-2.2-6.1-4.8C32.4,5.2,36.8,5,41.5,4.7z"/>
					</g>
					<g id="Head_4_" transform="translate(90.000000, 3.000000)">
						
							<linearGradient id="Path_195_" gradientUnits="userSpaceOnUse" x1="1100.0546" y1="954.5988" x2="1100.1127" y2="953.4064" gradientTransform="matrix(-30.5237 0 0 -35.1002 33591.6914 33510.9297)">
							<stop  offset="0" style="stop-color:#FDC6C6"/>
							<stop  offset="1" style="stop-color:#FFCCA1"/>
						</linearGradient>
						<path id="Path_143_" class="st112" d="M2.8,21.9c-3.9,0.4-3.6,7.2,1.1,7.6c1,6.5,4.4,9.7,8.5,10l-0.2,9.9l18.4,0
							c0,0-5.2-7-4.9-16.5c0.3-9.6-0.2-18.5-0.2-18.5L1.7,14.7L2.8,21.9z"/>
						<path id="Path_144_" class="st113" d="M2,22.4c4.5-1.8,7.8,5.9,11.2,11.2s12.3,4.4,13.6,0c4.6-9.7,8.6-22.8,3.2-23.9
							C29.2-4.3-7.3-1,2,22.4z"/>
						<path id="Combined-Shape_5_" class="st114" d="M27.3,4.4c1.6,1.3,2.6,3.1,2.7,5.3c5.4,1.1,1.4,14.2-3.2,23.9
							c-1.1,4.1-8.9,5.2-12.8,1c-3.5-10.5-2-22.3,5.1-30.2l0,0L27.3,4.4z"/>
						<ellipse id="Oval_10_" class="st115" cx="22.1" cy="4.4" rx="4.4" ry="-4.4"/>
					</g>
					<g id="Body_4_" transform="translate(77.000000, 49.000000)">
						<path id="Path_145_" class="st116" d="M11.3,5C7.2,11,0.4,31.3,0,35.9c-0.4,5.3,5.2,13.7,5.3,21.3c0.1,7.6-4.2,26.7-2.9,28.9
							c1.3,2.1,43.9,14.6,46.3,13.5c2.4-1,10.7-12,8.8-16.5c-1.9-4.5-9.8-14.6-8.9-20.7c0.9-6.1,6.1-28.6,8.6-36.2
							c2.6-7.7,1.7-15.7-3.1-19C51.8,5.6,45.5,0.9,34.3,1C23.1,1,11.6,4.5,11.3,5z"/>
						<path id="Path_146_" class="st54" d="M2.1,31l19.6-14.1l0,2.6C21.6,35.3,20.6,43.7,4,69.7L4.4,67c0.5-3.8,1-7.4,0.9-9.9
							C5.3,52.4,3,47.2,1.4,42.8L2.1,31z"/>
						<path id="Path-68" class="st117" d="M24,0.5c-0.3,1.7,0.2,2.6,1.6,2.6c2.1,0,15.9,0.5,17.8-0.4c1.3-0.5,1.7-1.3,1.3-2.2H24z"
							/>
					</g>
					<g id="LArm_4_" transform="translate(15.000000, 53.000000)">
						
							<linearGradient id="Path_196_" gradientUnits="userSpaceOnUse" x1="1166.576" y1="908.944" x2="1166.653" y2="908.0526" gradientTransform="matrix(-52.0109 0 0 -44.971 60698.8203 40879.8555)">
							<stop  offset="0" style="stop-color:#FDC6C6"/>
							<stop  offset="1" style="stop-color:#FFCCA1"/>
						</linearGradient>
						<path id="Path_147_" class="st118" d="M16.9,31.9c0,0-11.3-7.5-13.3-9c-2-1.5-4.5-12.9-2.9-14.5c0.7-0.8,6.4,4.4,7.4,5.1
							c1,0.7,6.1,3.8,6.1,3.8S12.7,8.5,14,7.8c0.9-0.5,2.8,1.7,3,4.1c0.2,2.4,2.8,5.5,3.1,9.1c0.1,1.6,0.7,3.6,0.7,3.6L52.2,38
							l-3.3,14.6L16.9,31.9z"/>
						<path id="Path_148_" class="st106" d="M84.1,17.4c-4.3,9-11.7,22.1-15.7,29.8c-4.8,9.1-10.5,13-21.9,6.2
							c-0.9-0.5-2.3-1.4-4.2-2.6l7.1-15.8c2.5,1.1,3.7,1.6,3.7,1.6S64,16.7,68.6,7.1C74.4-5.2,92.5,0,84.1,17.4z"/>
						<path id="Path_149_" class="st54" d="M53,36.8c-1.3,4.7-2.2,7-2.5,6.8c-0.3-0.2-0.2-2.8,0.3-7.8L53,36.8z"/>
						<polygon id="Path-75" class="st107" points="49.4,34.4 44.5,54.1 37.1,50.1 46.8,32.9 						"/>
					</g>
					<path id="Path_150_" class="st113" d="M111.7,4.1c0,0,4.1-5.3,8.9-3.9c4.8,1.4,9.1,9.9,7.1,18c-2,8-0.4,12.6,2.1,18
						c6.7,14.6-16.4,23.8-16.4,23.8c1.2-7.2,0.6-13-1.7-17.3c-3.6-6.7-5.7-15.3-5.7-20.6C106,13,111.7,4.1,111.7,4.1z"/>
				</g>
				
					<g id="Chair8_1_" transform="translate(362.278075, 367.800000) scale(-1, 1) translate(-362.278075, -367.800000) translate(306.778075, 277.800000)">
					<polygon id="Path_151_" class="st6" points="47.1,98.4 35.7,179.4 41.7,179.3 53.1,99.3 					"/>
					<polygon id="Path_152_" class="st6" points="13.8,98.4 2.4,179.4 8.4,179.3 19.8,99.3 					"/>
					<polygon id="Path_153_" class="st11" points="86.9,98.4 98.3,179.4 92.3,179.3 80.9,99.3 					"/>
					<path id="Path_154_" class="st11" d="M0,93.7c0-5.2,4.2-9.4,9.4-9.4h37.8c5.7,0,10.5-4.4,11-10l6-64.2c0.5-5.7,5.3-10,11-10H99
						c6.1,0,11.1,5,11.1,11.1c0,0.3,0,0.6,0,0.8l-6.2,81c-0.4,5.8-5.3,10.2-11.1,10.2H9.4C4.2,103.2,0,99,0,93.7z"/>
					<path id="Combined-Shape_6_" class="st6" d="M69.5,1.6l-6.3,81.9c-0.4,5.8-5.3,10.2-11.1,10.2h-52l-0.2,0c0-0.1,0-0.1,0-0.2
						c0-5.2,4.2-9.4,9.4-9.4h37.6c5.7,0,10.5-4.4,11-10l6-64C64.5,6.4,66.6,3.3,69.5,1.6z"/>
				</g>
			</g>
		</g>
	</g>
</g>
</svg>
